<?xml version="1.0" encoding="UTF-8"?>
<svg id="Layer_2" data-name="Layer 2" xmlns="http://www.w3.org/2000/svg" viewBox="0 0 205.85 247.62">
  <defs>
    <style>
      .cls-1 {
        fill: #c3e9e4;
      }

      .cls-2 {
        fill: #e9b977;
      }

      .cls-3 {
        fill: #f6a5ca;
      }

      .cls-4 {
        fill: #cf5f73;
      }

      .cls-5 {
        fill: #fffbde;
      }

      .cls-6 {
        fill: #261e35;
      }

      .cls-7 {
        fill: #6c858a;
      }

      .cls-8 {
        fill: #28cbb0;
      }

      .cls-9 {
        fill: #d4787d;
      }

      .cls-10 {
        fill: #5a6e71;
      }
    </style>
  </defs>
  <g id="OBJECTS">
    <g>
      <path class="cls-6" d="m12.23,182.47s-6.2,43.49-.92,44.08c5.28.59,14.87-39.7,14.87-39.7l-13.95-4.38Z"/>
      <path class="cls-6" d="m95.82,185.87s6.22,43.49,11.49,42.88c5.27-.61,3.24-41.75,3.24-41.75l-14.74-1.13Z"/>
      <path class="cls-1" d="m68.64,56.84s-38.14-1.25-55.43,11.57c-17.28,12.82-15.16,113.83-7.49,125.12,7.67,11.29,118.14,15.74,124.44,0,6.3-15.74-13.86-47.71-22.33-57.84-8.47-10.13-17.37-83.04-39.2-78.85Z"/>
      <path class="cls-3" d="m115.33,63.67s25.85,21.79,29.81,19.76c3.96-2.03,26.09-56.45,27.44-55.73,1.35.72.1,5.52.1,5.52,0,0,3.91-8.44,4.49-6.59s-1.42,7.54-1.42,7.54c0,0,3.28-7.79,4.06-6.24s-.75,6.84-.75,6.84c0,0,3.76-4.87,4.18-3.06s-1.82,5.16-2.54,8.18c-.72,3.02-8.12,57.15-22.09,65.44-13.97,8.28-50.23-17.97-52.92-21.38-2.69-3.41,9.62-20.28,9.62-20.28Z"/>
      <path class="cls-6" d="m173.71,39.98c.76-.76,1.11-1.6,1.03-2.5-.17-1.87-2.17-3.25-2.26-3.3l-.61.89s1.67,1.16,1.79,2.51c.05.57-.18,1.1-.71,1.63l.76.77Z"/>
      <path class="cls-5" d="m178.11,48.63s-13.18-5.72-14.24-5.72-3.51,4.92-2.93,7.09,12.78,8.07,15.46,6.94c2.67-1.13,4.1-7.29,1.72-8.31Z"/>
      <path class="cls-6" d="m73.37,15.11s-4.98-.62-6.78,4.35-.73,18.45,7.22,16.19c7.95-2.26,1.67-21.08-.44-20.55Z"/>
      <path class="cls-10" d="m88.98,144.86s-115.25,5.39-35.2,31.1c19.69,6.32,69.84,3.79,77.58,0,7.73-3.79,48.44-21.22-42.37-31.1Z"/>
      <path class="cls-8" d="m179.04,55.79s-14.35-9.71-18.64-7.44c-4.29,2.26-14.52,28.79-14.52,28.79-1.86-.2-35.2-32.59-50.96-26.13-3.64,1.49,1.58,28.01,5.43,30.4,3.85,2.4,40.99,41.07,55.59,33.14,5.22-2.84,26.06-57.04,23.09-58.76Z"/>
      <path class="cls-3" d="m72.95,28.96s.19,20.18-.62,21.02c-1.38,1.43-10.39,1.16-14.14,4.88-3.75,3.72,17.69,11.55,28.16,10.91,6.97-.43,14.07-14.86,9.13-14.88-4.93-.02-8.16-1.26-8.05-4.88s.14-6.91.14-6.91c0,0-13.89-9.62-14.63-10.15Z"/>
      <path class="cls-8" d="m91.42,50.5s3.96,9.43-3.26,10.1c-8.49.78-19.16-8.92-20.8-9-14.53-.74-19.33,4.25-24.03,10.04-4.7,5.79,5.08,94.24,10.02,95.01s73.02-18.61,75.4-19.13c2.38-.52-13.64-80.74-15.17-80.93-1.54-.19-11.44-8.71-22.16-6.08Z"/>
      <path class="cls-3" d="m131.21,228.68s-4.48,12.36,3.87,12.84c8.36.48,20.54,2.55,24.23-.15,3.69-2.71-17.7-10.6-18.66-14.9s-9.44,2.21-9.44,2.21Z"/>
      <path class="cls-3" d="m171.17,201.31s2.21,13.7,9.92,10.45c7.71-3.25,21-5.53,23.12-9.59s-22.01-2.94-24.77-6.37-8.27,5.51-8.27,5.51Z"/>
      <path class="cls-6" d="m52.11,147.37s.05-24.14,64.68-24.88c30.54-.35,36.36,96.64,36.36,96.64-6.4.71-31.88,7.35-33.8-.38-1.93-7.73-14.7-51.04-14.7-51.04-8.39-1.54-50.87,11.89-52.54-20.34Z"/>
      <path class="cls-8" d="m86.53,120.47s-2.88-13.49-8.4-13.73c-5.51-.25-18.07,3.34-20.16.9s12.43-54.84,6.82-55.57c-11.28-1.47-18.05,3.84-23.77,12.91-7.24,11.48-10.84,58.31-3.91,66.32,6.08,7.03,49.37-4.7,49.41-10.83Z"/>
      <path class="cls-6" d="m66.6,108.79c3.17,0,10.06-1.27,11.63-1.57l-.18-.97c-4.21.8-11.31,1.9-12.42,1.47-1.84-.72-.9-11.59-.21-19.52.59-6.77,1.14-13.17.51-15.82l-.96.23c.6,2.5.05,8.82-.53,15.5-1.05,12.15-1.52,19.6.83,20.52.27.11.74.15,1.34.15Z"/>
      <path class="cls-6" d="m115.47,76.84l.75-.64c-2.75-3.21-4.92-9.49-4.94-9.55l-.93.32c.09.26,2.25,6.52,5.12,9.87Z"/>
      <rect class="cls-2" x="89.3" y="72.04" width="43.27" height="51.97" transform="translate(-4.28 5.07) rotate(-2.57)"/>
      <path class="cls-6" d="m82.95,123.28s30.34-20.6,50.76-14.14c25.02,7.92,49.95,76.85,49.95,76.85-13.55,10.79-19.67,19.22-24.94,13.42-22.18-24.42-48.17-67.28-50.89-63.73-2.72,3.55-25.77-.09-24.89-12.41Z"/>
      <path class="cls-3" d="m85.77,108.2s3.72-5.58,3.73-5.32,1.16,5.1,1.16,5.1c0,0,10.96-6.34,11.45-3.51s-.75,8.47-5.04,11c-4.29,2.52-8.97,6.36-10.76,4.89-1.79-1.47-5.24-7.54-.55-12.15Z"/>
      <path class="cls-3" d="m74.73,11.75s15.13-5.32,20.23.91c5.1,6.23,4.86,27.66-6.52,28.94-16.41,1.84-21.96-22.21-13.71-29.84Z"/>
      <circle class="cls-4" cx="80.57" cy="30.36" r="2.38"/>
      <ellipse class="cls-6" cx="95.42" cy="24.09" rx="1.02" ry="1.28" transform="translate(-2.99 25.12) rotate(-14.77)"/>
      <ellipse class="cls-6" cx="84.75" cy="24.86" rx="1.02" ry="1.28" transform="translate(-3.31 18.12) rotate(-11.97)"/>
      <path class="cls-6" d="m97,7.62s2.47,5.61-2.71,7.64c-6.17,2.42-13.85-3.47-16.56-1.86-2.71,1.6,1.24,8.27-4.21,11.61-3.72,2.28-7.05-3.56-5.32-10.64,1.89-7.71,8.68-7.4,10.26-8.67s-2.31-1.35-1.01-3.32,13.26-6.11,19.56,5.24Z"/>
      <path class="cls-9" d="m71.33,27s-.61-2.84-2.31-1.43-.62,5.86,1.59,6.62c2.21.77,1.15-4.08.72-5.19Z"/>
      <path class="cls-6" d="m94.29,35.91c-1.36-.67.65-4.01-4.56-4.96-9.24-1.69-5.16,4.56-9.89,5.5-4.73.94-8.22-15.75-4.47-18.85,1.63-1.34-8.04-1.41-3.4,14.22.3,1.02-3.15,14.87,16.19,15.57,3.62.13,8.14-3.43,9.43-6.12,2.27-4.74.76-12.73.29-13.71,0,0-1.43,9.41-3.6,8.35Z"/>
      <path class="cls-6" d="m91.68,31.44c.41,0,.79-.07,1.06-.24.13-.08.3-.24.36-.54.27-1.25-2.05-4.86-2.77-5.93l-.83.56c1.49,2.23,2.66,4.5,2.63,5.1-.52.2-1.97-.13-3.1-.56l-.36.93c.36.14,1.83.68,3.01.68Z"/>
      <path class="cls-5" d="m89.16,34.94c1.04,0,1.86-.54,1.9-.57l-.42-.62s-1.01.67-2.07.36c-.75-.22-1.37-.88-1.84-1.95l-.69.3c.57,1.29,1.35,2.09,2.32,2.37.27.08.54.11.79.11Z"/>
      <path class="cls-6" d="m186.41,197.83s1.73,4.38,0,5.19-13.87,1.61-14.47,1.72,3.76,9.09,5.55,9.34,26.15-2.79,28.2-9.34c2.05-6.55-16.51-6.66-19.28-6.91Z"/>
      <path class="cls-6" d="m147.75,232.24s-1.97,5.62-3.51,5.68-14.21-3.48-14.21-3.48c0,0-.26,9.4,1.68,10.35s27.05,4.72,32.27,1.62c5.22-3.1-16.23-14.17-16.23-14.17Z"/>
      <path class="cls-5" d="m90.27,24.09c0-2.68,2.18-4.86,4.86-4.86s4.86,2.18,4.86,4.86-2.18,4.86-4.86,4.86-4.86-2.18-4.86-4.86Zm.75,0c0,2.26,1.84,4.11,4.11,4.11s4.11-1.84,4.11-4.11-1.84-4.11-4.11-4.11-4.11,1.84-4.11,4.11Z"/>
      <path class="cls-5" d="m78.46,24.09c0-2.68,2.18-4.86,4.86-4.86s4.86,2.18,4.86,4.86-2.18,4.86-4.86,4.86-4.86-2.18-4.86-4.86Zm.75,0c0,2.26,1.84,4.11,4.11,4.11s4.11-1.84,4.11-4.11-1.84-4.11-4.11-4.11-4.11,1.84-4.11,4.11Z"/>
      <path class="cls-5" d="m87.69,25.37c1.43-.36,2.97-.27,2.99-.27l.05-.75c-.07,0-1.68-.1-3.22.3l.19.73Z"/>
      <rect class="cls-5" x="70.58" y="24.8" width="8.27" height=".75" transform="translate(-1.7 5.77) rotate(-4.38)"/>
      <path class="cls-5" d="m65.37,51.53s4.38-3.1,8.44-.94c7.16,3.82,13.9,9.9,13.9,9.9,0,0,2.4-11.13,4.06-11.36,1.66-.24,8.22-1.26,8.08,1.32s-.18,15.48-3.93,15.36-8.21-3.41-8.21-3.41c0,0-1.37,5.08-5.33,5.93-6.45,1.38-18.37-14.09-17.01-16.8Z"/>
      <path class="cls-5" d="m78.39,108.69s2.25,15.09,4.56,14.59,5.21-1.63,5.21-1.63c0,0-3.33-14.72-4.32-14.72-1.85,0-5.45,1.75-5.45,1.75Z"/>
      <path class="cls-5" d="m91.7,10.35c.29-2.27-.18-4.12-1.38-5.51-2.12-2.44-5.73-2.53-5.88-2.53v.75s3.43.09,5.32,2.28c1.05,1.22,1.46,2.87,1.2,4.92l.74.09Z"/>
      <path class="cls-5" d="m90.1,11.01c.07-3.43-4.4-5.79-4.59-5.89l-.35.67s4.24,2.25,4.18,5.21h.75Z"/>
      <path class="cls-5" d="m149.4,188.94l.74-.11c-.02-.11-1.7-11.38-5.09-22.94-4.59-15.62-9.96-24.32-15.97-25.85-12.25-3.13-17.14,3.51-22.81,11.19-3.99,5.41-8.51,11.54-16.41,14.77l.28.69c8.09-3.31,12.68-9.53,16.73-15.02,5.51-7.46,10.26-13.91,22.02-10.91,13.75,3.51,20.44,47.72,20.51,48.17Z"/>
      <path class="cls-7" d="m92.11,191.14s5.99-49.92-10.21-56.17c-7.3-2.82-55.93-13.19-61.48-5.25-5.55,7.94-7.15,58.5,0,61.43,7.15,2.93,71.69,0,71.69,0Z"/>
      <path class="cls-5" d="m184.61,178.9s-29.88,15.22-28.97,20c.7,3.69,2.58,8.44,8.29,7.07,7.02-1.69,20.6-12.78,23.5-17.3,2.9-4.52-2.82-9.77-2.82-9.77Z"/>
      <path class="cls-5" d="m154.52,217.01s-34.04-.18-35.16,1.74c-1.9,3.24-.42,10.71,3.33,10.38,6.27-.57,24.73-.19,30.48-.78,5.34-.55,1.36-11.33,1.36-11.33Z"/>
      <path class="cls-6" d="m94.67,115.82l.92-.4c-.36-.83-2.81-5.2-2.92-5.38l-.87.49c.87,1.56,2.6,4.66,2.87,5.29Z"/>
      <path class="cls-6" d="m93.51,112.39c1.8-1.51,7.93-6.65,7.93-6.65l-.64-.77s-6.13,5.14-7.93,6.65l.64.77Z"/>
      <path class="cls-6" d="m94.4,114.28c.17-.08,4.09-1.9,7.54-5.62l-.73-.68c-3.31,3.56-7.19,5.37-7.23,5.39l.42.91Z"/>
    </g>
  </g>
</svg>