<?xml version="1.0" encoding="UTF-8"?>
<svg xmlns="http://www.w3.org/2000/svg" viewBox="0 0 500 500">
  <defs>
    <style>
      .cls-1 {
        fill: #fff;
      }

      .cls-2 {
        fill: #dbdbdb;
      }

      .cls-3 {
        fill: #ff99ba;
      }

      .cls-4 {
        fill: #37474f;
      }

      .cls-5 {
        fill: #455a64;
      }

      .cls-6 {
        opacity: .2;
      }

      .cls-7 {
        fill: #eb9481;
      }

      .cls-8, .cls-9, .cls-10 {
        opacity: .1;
      }

      .cls-11 {
        fill: #ebebeb;
      }

      .cls-12, .cls-10 {
        fill: #28cbb0;
      }

      .cls-9 {
        fill: #030402;
      }

      .cls-13 {
        fill: #263238;
      }
    </style>
  </defs>
  <g id="Background_Complete" data-name="Background Complete">
    <g>
      <rect class="cls-11" x="55.72" y="76.24" width="40.67" height="11.38"/>
      <path class="cls-11" d="m73.71,61.88c-11.95.18-28.91.46-40.67.46,0,0,.46-.46.46-.46l.04,11.38-.5-.5c6.76.02,23.97.07,30.5.16,0,0,10.17.12,10.17.12l-.22.22.22-11.38h0Zm0,0l.22,11.38v.21s-.22,0-.22,0l-10.17.12c-6.45.09-23.83.14-30.5.16h-.5s0-.5,0-.5l.04-11.38v-.46s.46,0,.46,0c11.84-.02,28.68.3,40.67.46h0Z"/>
      <path class="cls-11" d="m119.07,61.88c-11.95.18-28.91.46-40.67.46l.46-.46.04,11.38-.5-.5c6.76.02,23.97.07,30.5.16l10.17.12-.22.22.22-11.38h0Zm0,0l.22,11.38v.21s-.22,0-.22,0l-10.17.12c-6.45.09-23.83.14-30.5.16h-.5s0-.5,0-.5l.04-11.38v-.46s.46,0,.46,0c11.84-.02,28.68.3,40.67.46h0Z"/>
      <path class="cls-11" d="m454.69,51.09c-11.95.18-28.91.46-40.67.46l.46-.46.04,11.38-.5-.5c6.76.02,23.97.07,30.5.16l10.17.12-.22.22.22-11.38h0Zm0,0l.22,11.38v.21s-.22,0-.22,0l-10.17.12c-6.45.09-23.83.14-30.5.16h-.5s0-.5,0-.5l.04-11.38v-.46s.46,0,.46,0c11.84-.02,28.68.3,40.67.46h0Z"/>
      <rect class="cls-11" x="391.34" y="391.49" width="40.67" height="11.38"/>
      <path class="cls-11" d="m454.69,377.13c-11.95.18-28.91.46-40.67.46l.46-.46.04,11.38-.5-.5c6.76.02,23.97.07,30.5.16l10.17.12-.22.22.22-11.38h0Zm0,0l.22,11.38v.21s-.22,0-.22,0l-10.17.12c-6.45.09-23.83.14-30.5.16h-.5s0-.5,0-.5l.04-11.38v-.46s.46,0,.46,0c11.84-.02,28.68.3,40.67.46h0Z"/>
      <path class="cls-11" d="m345.08,234.14c-11.95.18-28.91.46-40.67.46,0,0,.46-.46.46-.46l.04,11.38-.5-.5c6.76.02,23.97.07,30.5.16l10.17.12-.22.22.22-11.38h0Zm0,0l.22,11.38v.21s-.22,0-.22,0l-10.17.12c-6.45.09-23.83.14-30.5.16h-.5s0-.5,0-.5l.04-11.38v-.46s.46,0,.46,0c11.84-.02,28.68.3,40.67.46h0Z"/>
      <path class="cls-11" d="m159.28,315.6c-11.95.18-28.91.46-40.67.46l.46-.46.04,11.38-.5-.5c6.76.02,23.97.07,30.5.16l10.17.12-.22.22.22-11.38h0Zm0,0l.22,11.38v.21s-.22,0-.22,0l-10.17.12c-6.45.09-23.83.14-30.5.16,0,0-.5,0-.5,0v-.5s.04-11.38.04-11.38v-.46s.46,0,.46,0c11.84-.02,28.68.3,40.67.46h0Z"/>
      <rect class="cls-11" x="44" y="363.57" width="40.67" height="11.38"/>
      <path class="cls-11" d="m61.98,349.22c-11.95.18-28.91.46-40.67.46,0,0,.46-.46.46-.46l.04,11.38-.5-.5c6.76.02,23.97.07,30.5.16l10.17.12-.22.22.22-11.38h0Zm0,0l.22,11.38v.21s-.22,0-.22,0l-10.17.12c-6.45.09-23.83.14-30.5.16h-.5s0-.5,0-.5l.04-11.38v-.46s.46,0,.46,0c11.84-.02,28.68.3,40.67.46h0Z"/>
    </g>
    <g>
      <g>
        <rect class="cls-11" x="229.72" y="61.4" width="95.45" height="132.13"/>
        <rect class="cls-1" x="233.53" y="64.77" width="87.83" height="125.38"/>
        <rect class="cls-11" x="247.18" y="78.04" width="60.54" height="98.85"/>
        <rect class="cls-2" x="325.17" y="61.4" width="2.45" height="132.13"/>
      </g>
      <g>
        <rect class="cls-11" x="356.79" y="98.18" width="95.45" height="132.13"/>
        <rect class="cls-1" x="360.59" y="101.56" width="87.83" height="125.38"/>
        <rect class="cls-11" x="374.24" y="114.82" width="60.54" height="98.85"/>
        <rect class="cls-2" x="452.24" y="98.18" width="2.45" height="132.13"/>
      </g>
    </g>
  </g>
  <g id="Floor">
    <path class="cls-13" d="m57.17,466.34c123.54-.61,262.12-.62,385.66,0-123.54.62-262.12.61-385.66,0h0Z"/>
  </g>
  <g id="Plant">
    <g>
      <g>
        <path class="cls-12" d="m91.27,413.83c.32-7.77.19-15.55-.32-23.31-1.05-16-3.68-31.88-7.3-47.5-2.04-8.79-4.54-17.43-7.16-26.06-.08-.26-.49-.19-.42.08,8.08,30.43,14.71,61.83,14.25,93.46-.13,8.85-1.15,17.55-1.99,26.34-.02.24.36.33.42.09,1.67-7.53,2.21-15.41,2.52-23.1Z"/>
        <path class="cls-12" d="m76.07,317.05s-12.24,31.07-9.5,38.38c2.74,7.3,8.39,8.86,8.39,8.86,0,0-7.49,10.69-2.26,20.72s16.86,9.56,17.64,20.93c0,0,.65-47.55-14.27-88.89Z"/>
        <path class="cls-13" d="m89,386.3c.01-.05.01-.11-.01-.16-1.72-21.13-5.47-42.19-11.87-62.51-.02-.06-.12-.04-.1.02,2.43,9.09,4.58,18.23,6.43,27.42-1.59-1.64-3.67-2.58-5.84-3.26-.04-.01-.06.05-.02.06,2.26.98,4.43,2.11,6.03,4.03.36,1.8.71,3.6,1.04,5.41-2.74-3.06-6.53-4.57-10.33-6.02-.05-.02-.08.06-.03.08,3.95,1.61,7.89,3.68,10.57,7.09.93,5.16,1.75,10.33,2.46,15.52-2-2.09-4.47-3.49-7.3-4.18-.08-.02-.13.11-.05.13,2.91.84,5.41,2.47,7.4,4.74.01.02.03.02.05.03.24,1.83.48,3.65.69,5.48-1.54-1.31-3.24-2.31-5.12-3.09-.05-.02-.08.06-.03.08,1.9.81,3.62,1.98,5.12,3.39.02.02.04.02.07.03.2,1.74.41,3.48.58,5.22-2.81-3.38-6.28-5.83-10.38-7.41-.08-.03-.12.09-.04.12,3.99,1.74,7.51,4.49,10.23,7.87.07.09.17.11.26.08.26,2.67.5,5.35.7,8.03,0,.04.06.04.06,0-.15-2.74-.35-5.49-.57-8.23Z"/>
        <path class="cls-13" d="m79.17,344.72c-2.12-1.46-4.82-2.08-7.35-2.29-.06,0-.07.08,0,.09,2.64.39,4.85,1.35,7.27,2.38.11.04.18-.11.09-.18Z"/>
        <path class="cls-13" d="m80.65,377.62c-1.68-1.01-3.6-1.58-5.52-1.89-.07-.01-.07.09,0,.1,1.95.35,3.69,1.05,5.46,1.92.08.04.14-.09.07-.13Z"/>
      </g>
      <g>
        <path class="cls-12" d="m123.45,355.93c-5.11,3.59-10,7.73-14.17,12.39-4.44,4.96-7.68,10.6-9.94,16.85-4.63,12.81-7.17,26.69-7.4,40.3-.13,7.63.55,15.21,2.18,22.67.06.27.47.19.42-.08-2-13.13-1.92-26.52.22-39.62,2.1-12.85,5.41-26.84,13.58-37.28,4.45-5.69,10-10.16,15.48-14.79.29-.24-.08-.64-.38-.43Z"/>
        <path class="cls-12" d="m93.74,416.22s4.2-7.08,10.33-13.2c6.12-6.12,11.28-10.47,12.08-14.52.8-4.05-6.13-7.03-6.13-7.03,0,0,8.47,1.52,10.79-2.04,2.32-3.56,3.44-24.16,3.44-24.16,0,0-15.42,11.01-22.6,26.44s-7.9,34.51-7.9,34.51Z"/>
        <path class="cls-13" d="m118.91,360.55c-6.49,6.37-13.02,13.16-16.84,21.53-1.31,2.87-2.42,5.85-3.41,8.88,0,0,0,0,0,.01-.2.61-.4,1.22-.58,1.83-.02.03-.03.06-.03.1-1.89,6.25-3.22,12.72-4.38,19.03,0,.04.05.06.06.02.66-3.21,1.4-6.46,2.22-9.7.03,0,.06,0,.09-.02,1.31-.55,2.63-.9,4.05-1.03.09,0,.08-.17,0-.16-1.37.07-2.7.31-4,.73.75-2.92,1.56-5.83,2.47-8.69,2.98-.73,6.08-1.12,9.14-1.2.03,0,.04-.05,0-.05-3.09-.14-5.99.12-8.99.76.16-.49.32-.98.49-1.47,2.01-.46,4.03-.84,6.08-1.03.04,0,.03-.07,0-.07-2.01.05-4,.27-5.96.72.84-2.48,1.75-4.93,2.75-7.31.83-1.97,1.82-3.84,2.91-5.65,1.65-.37,3.25-.73,4.94-.88.05,0,.04-.08,0-.08-1.53-.1-3.13.02-4.61.46.81-1.31,1.66-2.59,2.57-3.84h0c3.46-.77,6.96-1.48,10.5-.81.06.01.08-.09.02-.11-3.37-.89-6.71-.37-10.06.29.37-.49.74-.97,1.12-1.44,2.12-.66,4.23-.97,6.46-1.01.05,0,.05-.07,0-.07-2.03-.19-4.06,0-6.02.53,2.86-3.55,6.02-6.89,9.14-10.19.14-.15.03-.24-.12-.09Z"/>
        <path class="cls-13" d="m118.74,374.59c-1.01-.11-2.05-.22-3.07-.11-.12.01-.11.21.01.22,1.02.03,2.03-.05,3.04,0,.08,0,.09-.11.01-.12Z"/>
        <path class="cls-13" d="m107.64,394.57c-1.62-.02-3.24.42-4.75.95-.04.01-.02.08.02.07,1.57-.37,3.16-.53,4.74-.79.13-.02.12-.23-.01-.23Z"/>
        <path class="cls-13" d="m104.32,387.67c-.66-.03-1.37.08-2.02.18-.07.01-.06.12,0,.12.66.01,1.38.03,2.02-.09.11-.02.11-.2-.01-.21Z"/>
      </g>
      <g>
        <path class="cls-12" d="m48.55,377.79c4.96,1.72,9.88,3.94,14.33,6.75,4.74,2.99,8.66,6.8,11.94,11.34,6.71,9.3,11.97,19.94,15.31,30.91,1.87,6.15,3.07,12.43,3.47,18.85.01.23-.33.27-.36.03-1.42-11.08-4.57-21.91-9.34-32.01-4.67-9.92-10.58-20.47-19.61-27.04-4.92-3.58-10.44-5.91-15.95-8.39-.29-.13-.08-.54.2-.44Z"/>
        <path class="cls-12" d="m86.52,419.71s-5.04-4.76-11.41-8.3c-6.37-3.54-11.55-5.87-13.13-8.96-1.58-3.09,3.34-7.11,3.34-7.11,0,0-6.51,3.19-9.21.85-2.7-2.34-8.37-18.75-8.37-18.75,0,0,15.02,5.34,24.4,16.17,9.38,10.83,14.37,26.1,14.37,26.1Z"/>
        <path class="cls-13" d="m85.74,416.33c-7.51-14.1-17.54-26.86-31.27-35.28,0,0-.01,0,0,0,3.62,2.3,6.95,4.96,10.05,7.87-2.78-.08-5.61.37-8.08,1.7-.05.03-.02.1.04.08,2.75-.93,5.39-1.54,8.31-1.4.04,0,.07-.02.09-.03.49.46.97.93,1.44,1.41-1.45.06-2.91.27-4.32.57-.04,0-.03.07.01.06,1.52-.29,3.01-.4,4.56-.38,2.52,2.53,4.86,5.24,7.09,8.04-1-.15-2.06-.06-3.02.22-.07.02-.05.12.02.11,1.09-.14,2.13-.12,3.22-.04.41.52.83,1.04,1.23,1.57-3.09-.19-6.11.11-9.12.89-.04.01-.03.08.01.07,3.1-.61,6.22-.8,9.36-.61.38.51.75,1.03,1.12,1.55-1.84-.06-3.63.17-5.43.62-.07.02-.05.12.02.11,1.85-.42,3.73-.53,5.62-.44,1.62,2.23,3.16,4.5,4.65,6.81-.79-.16-1.61-.07-2.38.14-.04.01-.03.07.01.07.88-.1,1.71.01,2.58.12,1.34,2.08,2.63,4.19,3.87,6.3.1.18.39.05.29-.14Z"/>
        <path class="cls-13" d="m74.05,404.63c-1.47-.13-2.96.1-4.36.53-.04.01-.03.07.01.06,1.44-.27,2.88-.37,4.34-.44.1,0,.11-.15.01-.15Z"/>
        <path class="cls-13" d="m60.95,387.45c-.66-.08-1.36.01-2.01.12-.08.01-.05.13.02.12.66-.07,1.31-.05,1.98-.07.11,0,.13-.16.01-.17Z"/>
      </g>
      <g>
        <polygon class="cls-5" points="71.99 421.85 105.9 421.85 99.83 466.34 78.06 466.34 71.99 421.85"/>
        <polygon class="cls-13" points="105.13 427.47 104.72 430.48 73.17 430.48 72.76 427.47 105.13 427.47"/>
        <polygon class="cls-13" points="104.24 434.03 103.82 437.05 74.06 437.05 73.65 434.03 104.24 434.03"/>
        <polygon class="cls-8" points="102.69 445.37 99.83 466.34 78.06 466.34 94.37 460.33 102.69 445.37"/>
      </g>
    </g>
  </g>
  <g id="Line">
    <path class="cls-13" d="m263.13,332.14c-4.77,0-9.59-.62-14.28-2.04-12.29-3.72-21.23-12.46-25.84-25.27-.84-2.33-1.5-4.97-2.01-7.89-.3.1-.6.19-.9.27-12.36,3.61-24.48,1.86-33.64-4.48-.38.05-.76.1-1.14.15-24.46,3.01-43.11-5.53-51.15-23.42-4.25-9.46-4.52-19.11-.79-28.71.22-.57.45-1.13.7-1.69-.19-.14-.37-.28-.56-.42-17,2.3-31.25.52-42.68-5.37l.69-1.33c10.84,5.59,24.34,7.39,40.4,5.41-.22-.19-.44-.38-.65-.57-16.28-14.69-21.92-35.27-14.72-53.71,6.07-15.56,20.09-26.05,37.76-28.85-.64-9.45,1.38-19.13,6.13-28.17,10.71-20.35,31.66-31.52,54.68-29.14,6.89.71,12.76,2.12,17.66,4.26,2.28-5.15,5.43-9.87,9.43-14.04,12.34-12.85,31.67-18.76,50.45-15.43,17.53,3.12,32.77,15.62,39.61,31.93,4.26.73,8.42,2.17,12.31,4.33,12.51,6.96,18.91,19.41,17.12,33.3-2.13,16.55-17.96,28.39-34.71,40.93-1.55,1.16-3.1,2.32-4.65,3.49,22.8.84,41.9,6.92,51.19,21.17,9.75,14.95,9.46,32.35-.81,48.99-5.9,9.56-14.61,17.94-24.23,24.04.15,1.34.22,2.66.2,3.96,12.21,7.25,23.57,15.88,29.03,20.03,1.57,1.19,2.7,2.05,3.1,2.31l-.8,1.27c-.46-.29-1.55-1.12-3.21-2.38-5.33-4.05-16.34-12.41-28.19-19.53-.75,10.89-7.17,20.15-14.45,26.01-8.96,7.22-22.04,11.56-33.19,7.2-.93.77-1.89,1.53-2.87,2.25-8.21,6.08-21.39,11.13-34.99,11.13Zm-40.69-35.68c.51,2.92,1.16,5.56,1.99,7.86,4.45,12.34,13.04,20.76,24.86,24.34,17.53,5.31,37.14-.87,47.94-8.86.75-.56,1.49-1.13,2.22-1.72-2.25-1.07-4.41-2.51-6.42-4.38-6.72-6.26-8.74-15.53-5.26-24.2.97-2.41,2.41-4.86,4.35-7.14-4.41-3.15-8.01-7.15-10.57-11.85-3.74-6.87-5.1-14.98-4.12-23.84-5.07.11-10.29.34-15.62.63-.64.85-1.29,1.69-1.95,2.53-4.93,26.36-22.27,41.27-37.42,46.61Zm79.86,21.17c10.44,3.66,22.55-.49,30.94-7.25,7.16-5.77,13.46-14.94,13.92-25.72-1.14-.67-2.29-1.33-3.44-1.97-7.7,4.16-15.77,6.82-23.28,7.45-3.18,10.21-9.45,19.85-18.14,27.48Zm-8.94-34.41c-1.88,2.18-3.28,4.53-4.21,6.84-3.24,8.08-1.37,16.71,4.89,22.54,2.08,1.94,4.33,3.39,6.68,4.41,8.64-7.39,14.89-16.79,18.11-26.76-1.98.09-3.92.04-5.8-.18-7.44-.84-14.14-3.22-19.68-6.86Zm-104.68,9.18c8.62,5.34,19.7,6.67,30.99,3.37.36-.1.71-.21,1.08-.33-.63-3.99-1.02-8.45-1.28-13.28-10.17,5.08-20.71,8.59-30.79,10.24Zm32.25-10.98c.25,4.94.63,9.49,1.26,13.53,14.14-5.08,30.18-18.74,35.62-42.61-10.23,12.08-23.18,22.01-36.87,29.08Zm-85.62-41.46c-.19.45-.38.9-.55,1.35-3.58,9.2-3.32,18.47.76,27.55,7.71,17.16,25.62,25.37,49.18,22.6-2.19-1.73-4.18-3.73-5.93-6.01-7.67-9.96-8.85-22.33-3.65-34.49-15.92-1.05-29.82-4.14-39.81-10.99Zm41.41,11.09c-5.21,11.81-4.17,23.85,3.24,33.47,1.99,2.59,4.3,4.81,6.87,6.65,10.62-1.53,21.81-5.19,32.56-10.63-.31-6.55-.39-13.74-.48-21.35-.03-2.92-.07-5.9-.12-8.89-14.62.94-29,1.5-42.07.75Zm117.66,31.05c5.31,3.44,11.72,5.69,18.83,6.49,1.97.22,4.01.27,6.09.15,1.43-4.94,2.12-10,1.99-15.01-1.3-.21-2.55-.34-3.74-.35-10.65-.16-18.29,3.7-23.17,8.73Zm28.42-8.09c.09,4.88-.57,9.8-1.91,14.6,6.88-.67,14.21-3.06,21.28-6.76-6.75-3.66-13.5-6.6-19.37-7.84Zm22.44,7.84c.65.36,1.29.73,1.93,1.11-.01-.72-.05-1.44-.11-2.17-.6.36-1.21.72-1.82,1.07Zm-66.31-35.19c-.98,8.62.31,16.5,3.93,23.15,2.47,4.54,5.97,8.4,10.26,11.44,5.12-5.39,13.18-9.53,24.45-9.37,1.17.02,2.39.13,3.66.33-.08-1.35-.22-2.69-.42-4.02-1.04-6.82-3.61-13.23-7.62-19.14-9.97-2.04-21.63-2.59-34.25-2.38Zm43.82,25.82c6.36,1.29,13.7,4.54,20.99,8.54,1.06-.58,2.1-1.2,3.14-1.84-.58-4.06-2.04-8.28-4.59-12.59-5.35-9.04-14.82-14.27-27-17.09,3.64,5.73,6.01,11.91,7.01,18.46.23,1.5.38,3.01.46,4.52Zm-102.46-22.27c.05,3.02.08,6.02.12,8.97.09,7.33.17,14.28.44,20.61,14.11-7.38,27.39-17.82,37.59-30.55.1-.57.2-1.16.3-1.74-7.09.43-14.35.97-21.68,1.51-5.58.41-11.19.83-16.77,1.2Zm93.8-2.51c13.3,2.81,23.67,8.29,29.49,18.12,2.52,4.26,4.02,8.45,4.69,12.47,9.19-5.95,17.51-14.03,23.18-23.22,9.95-16.13,10.24-32.96.83-47.39-9.95-15.25-30.63-20.18-51.73-20.63-4.09,3.12-8.15,6.31-12.03,9.66,4.06,3.39,7.36,7.65,9.55,13.28,4.05,10.43-.64,20.69-12.57,27.91,3.32,3.08,6.19,6.35,8.58,9.8Zm-136.69,1.89c12.86.69,26.99.13,41.37-.79-.18-10.23-.55-20.75-1.62-30.88-15.5,4.79-27.87,13.99-35.37,24.39-1.73,2.4-3.19,4.83-4.38,7.28Zm-41.45-11.02c9.86,6.87,23.81,9.92,39.83,10.92,1.28-2.71,2.87-5.41,4.78-8.06,7.71-10.69,20.46-20.14,36.42-25.02-.29-2.6-.64-5.17-1.04-7.7-5.37,2.17-10.22,4.35-14.4,6.44-24.91,12.47-46.78,20.18-65.45,23.12-.05.1-.1.2-.14.3Zm82.68-21.09c1.09,10.24,1.46,20.88,1.65,31.22,5.55-.36,11.13-.78,16.68-1.19,7.44-.55,14.81-1.1,22.01-1.53.17-1.25.32-2.54.43-3.84-4.02-1.95-7.44-4.72-9.88-8.4-3.72-5.59-5.64-12.15-6.39-19.29-8.75-.26-16.98.87-24.5,3.03Zm66.45,27.64c9.73.05,18.8.65,26.86,2.15-2.22-3-4.82-5.87-7.79-8.58-.47.26-.94.52-1.43.77-5.38,2.79-11.48,4.73-17.65,5.66Zm-24.23-2.33c-.1,1.05-.22,2.08-.35,3.1.18-.01.37-.02.55-.03.57-.77,1.13-1.56,1.67-2.34-.63-.22-1.26-.46-1.87-.72Zm3.34,1.2c-.4.59-.82,1.18-1.23,1.76,2.66-.14,5.29-.27,7.89-.37-2.3-.29-4.54-.75-6.66-1.39Zm.86-1.27c3.94,1.14,8.27,1.63,12.7,1.55.95-6.09,2.97-12.5,6.06-19.08-2.66-1.3-5.44-2.52-8.35-3.67-2.49,7.51-6.04,14.6-10.41,21.2Zm20.1-16.86c-2.97,6.33-4.93,12.5-5.88,18.36,7.82-.38,15.89-2.52,22.76-6.09.32-.16.63-.33.94-.5-5-4.36-10.96-8.3-17.82-11.77Zm-24.17,15.38c.84.37,1.71.71,2.59,1.01,4.42-6.61,8.01-13.73,10.49-21.28-1.25-.48-2.52-.94-3.81-1.39-5.93-2.07-11.74-3.47-17.37-4.28,5.77,5.42,9,13.46,8.1,25.94Zm-16.33-26.74c.74,6.84,2.59,13.09,6.12,18.4,2.19,3.29,5.2,5.81,8.76,7.64.8-12.71-2.85-20.5-9.26-25.58-1.89-.22-3.77-.37-5.61-.46Zm-90.21-58.8c-17.09,2.74-30.63,12.88-36.49,27.9-6.97,17.85-1.48,37.79,14.33,52.06.54.49,1.1.96,1.67,1.42.38-.05.76-.11,1.14-.17,6.81-13.45,21.41-25.7,40.78-34.05,3.89-1.68,7.94-3.25,12.11-4.72-8.14-2.83-15.48-6.97-21.15-13.64-7.21-8.49-11.38-18.47-12.39-28.79Zm131.36,68.8c7.17,3.62,13.37,7.75,18.55,12.34,11.53-6.83,16.14-16.53,12.33-26.31-2.11-5.43-5.33-9.54-9.31-12.81-8.57,7.56-16.2,15.99-21.33,26.29-.08.17-.16.33-.25.5Zm-95.49-25.59c-4.78,1.65-9.42,3.42-13.85,5.33-18.59,8.01-32.68,19.62-39.53,32.38,18.26-3.03,39.62-10.64,63.94-22.82,4.48-2.24,9.46-4.48,14.81-6.66-.17-1.01-.35-2.02-.54-3.02-8.41-1.35-16.94-2.74-24.83-5.21Zm85.61,21.17c2.98,1.17,5.82,2.43,8.54,3.75.08-.17.16-.33.25-.5,5.14-10.32,12.93-18.94,21.5-26.55-4.43-3.35-9.68-5.8-15.32-7.94-3.25.42-6.52.92-9.77,1.47-.65,6.24-1.55,12.98-2.86,20.25-.58,3.24-1.36,6.42-2.33,9.53Zm-25.16-6.58c6.46.76,13.14,2.27,19.99,4.66,1.28.45,2.54.91,3.78,1.38.93-3.02,1.69-6.1,2.25-9.25,1.27-7.06,2.16-13.62,2.8-19.72-12.03,2.1-23.93,4.98-35.02,8.24-.27,3.73-.38,7.37-.25,10.89,2.34,1.08,4.51,2.33,6.45,3.81Zm-33.36-5.39c.41,2.58.76,5.2,1.07,7.85,7.55-2.15,15.79-3.27,24.53-3.03-.06-.76-.11-1.53-.15-2.3-5.45-2.35-11.9-3.81-18.84-5.04-2.27.84-4.48,1.68-6.6,2.53Zm27.11,4.88c1.09.05,2.17.12,3.27.21-1.07-.68-2.21-1.29-3.39-1.87.03.55.07,1.11.12,1.65Zm-17.73-8.41c5.76,1.11,11.21,2.45,16,4.45-.09-3.17,0-6.44.23-9.76-5.67,1.69-11.11,3.49-16.24,5.32Zm-10.02-.21c.13.72.26,1.45.39,2.18,1.25-.5,2.52-1,3.81-1.49-1.38-.23-2.78-.46-4.2-.69Zm-.3-1.57c2.45.39,4.88.79,7.27,1.21,6.14-2.27,12.66-4.45,19.42-6.46.36-4.37.93-8.83,1.61-13.34-.26.06-.52.12-.77.18-10.07,2.37-20.28,4.78-30.25,7.45,1.08,3.52,1.97,7.17,2.72,10.95Zm-23.68-4.73c7.06,2.03,14.61,3.27,22.06,4.48-.72-3.55-1.58-6.98-2.61-10.29-6.64,1.8-13.17,3.71-19.46,5.81Zm-36.84-42.59c.96,10.05,5.02,19.77,12.04,28.04,5.87,6.91,13.67,11.03,22.33,13.8,6.91-2.37,14.12-4.51,21.47-6.5-6.78-20.67-20.21-35.59-47.13-35.87-2.99-.04-5.89.15-8.71.52Zm90.39,28.37c-.68,4.47-1.26,8.91-1.64,13.25,11.28-3.29,23.18-6.1,35.05-8.13.13-1.32.25-2.62.36-3.9-5.04-1.7-10.23-3.47-15.3-5.69-6,1.52-12.2,2.99-18.48,4.47Zm47.68,4.6c4.89,1.99,9.44,4.29,13.36,7.31,3.52-3.07,7.16-5.97,10.78-8.76-8.29-.04-16.5.55-24.14,1.45Zm-130.02-35c.23,0,.45,0,.68,0,27.92.29,41.72,15.71,48.62,36.97,10.01-2.67,20.25-5.09,30.36-7.47.46-.11.91-.21,1.36-.32.61-3.95,1.3-7.91,1.98-11.86.12-.72.25-1.44.37-2.16-7.76-6.89-14.05-16.65-17.29-31.39-2.77-12.61-1.98-24.46,2.16-34.68-4.76-2.08-10.49-3.46-17.23-4.15-22.4-2.3-42.78,8.56-53.2,28.35-4.6,8.74-6.56,18.1-5.96,27.25,2.65-.35,5.38-.53,8.16-.53Zm117.59,32.11c-.09,1.04-.19,2.09-.29,3.15,2.19-.36,4.38-.69,6.56-1-2.06-.73-4.16-1.44-6.27-2.16Zm.13-1.54c3.17,1.07,6.31,2.13,9.35,3.27,9.94-1.26,19.72-1.88,28.92-1.69,2.07-1.57,4.12-3.11,6.14-4.62,16.49-12.34,32.07-24,34.12-39.92,1.71-13.26-4.41-25.15-16.36-31.8-3.46-1.93-7.14-3.25-10.92-3.99.54,1.42,1.01,2.86,1.42,4.32,4.85,17.49-.93,34.97-15.84,47.98-8.2,7.15-21.02,12.45-36.17,17.02-.17,3-.38,6.15-.65,9.44Zm-14.53-5.24c4.28,1.77,8.69,3.27,13.07,4.75.24-2.95.43-5.78.58-8.49-4.38,1.29-8.95,2.53-13.65,3.74Zm-18.49-9.04c-.07.43-.15.85-.22,1.28-.64,3.73-1.29,7.49-1.88,11.23,5.44-1.28,10.81-2.56,16.04-3.87-4.89-2.29-9.62-5.06-13.94-8.64Zm.28-1.61c4.83,4.14,10.26,7.18,15.94,9.68,5.54-1.4,10.91-2.84,16.01-4.36.21-3.89.35-7.53.48-10.95.87-22.18,1.45-36.83,17.02-49.51,9.46-7.7,21.08-11.01,32.14-9.62-6.81-15.45-21.4-27.22-38.12-30.2-18.29-3.25-37.11,2.49-49.11,14.99-3.88,4.04-6.94,8.62-9.14,13.62,4.74,2.29,8.52,5.31,11.39,9.11,10.37,13.67,7.25,34.73,3.39,57.25Zm76.66-63.57c-9.17,0-18.47,3.26-26.25,9.59-15.05,12.25-15.58,25.86-16.47,48.41-.13,3.27-.26,6.74-.46,10.44,14.74-4.48,27.18-9.65,35.1-16.56,14.47-12.61,20.07-29.54,15.38-46.45-.47-1.71-1.04-3.38-1.69-5.02-1.85-.27-3.73-.41-5.61-.41Zm-92.02-1.4c-4.01,9.93-4.76,21.45-2.06,33.73,3.09,14.05,8.86,23.41,16.11,30.07,3.73-21.84,6.58-42.19-3.27-55.17-2.71-3.58-6.29-6.45-10.78-8.63Z"/>
  </g>
  <g id="Character">
    <g>
      <g>
        <g>
          <path class="cls-7" d="m234.95,279.51c17.12,10.86,68.23,51.91,64.27,68.75-3.8,16.15-22.48,17.3-38.39,1.92-11.39-11.01-25.88-36.1-34.66-54.09-7.12-14.59-7.05-26.62,8.78-16.58Z"/>
          <g>
            <path class="cls-12" d="m234.95,279.51c17.12,10.86,68.23,51.91,64.27,68.75-3.8,16.15-22.48,17.3-38.39,1.92-11.39-11.01-25.88-36.1-34.66-54.09-7.12-14.59-7.05-26.62,8.78-16.58Z"/>
            <path class="cls-9" d="m262.71,351.89c2.58,2.27,5.21,4.1,7.83,5.52,2.25.86,4.46,1.78,6.63,2.73,4.25,1.19,8.26,1.22,11.7.12-8.34-3.24-17-6.25-26.17-8.38Zm-10.82-60.13c-9.32-2.93-19.12-5.17-29.59-5.95.15.64.33,1.29.54,1.97.63.06,1.25.13,1.88.2,14.45,1.95,26.26,6.86,37.62,12.31-3.56-3.02-7.09-5.89-10.44-8.52Zm44.84,45.73c-8.35-.71-15.89-3.32-24.13-5.26-8.34-1.97-18.3-3.3-27.41-2.29,1.09,1.69,2.19,3.33,3.29,4.93,2.29-.07,4.58.05,6.92.26,15.42,1.25,27.67,8.38,43.81,8.87-.39-1.99-1.25-4.18-2.49-6.51Z"/>
          </g>
          <path class="cls-8" d="m271.21,357.77c-3.47-1.79-6.99-4.31-10.37-7.6-11.38-11.02-25.89-36.09-34.66-54.1-5.16-10.55-6.54-19.78-.91-20.24l45.95,81.94Z"/>
        </g>
        <g>
          <path class="cls-7" d="m273.34,349.2c5.15,13.24,22.59,8.48,26.34.09,8.82-19.68,10.47-49,9.07-68.45-.45-6.26-42.71-5.35-43.29,1.33-.7,8.02-2.22,41.07,7.87,67.02Z"/>
          <g>
            <g>
              <path class="cls-7" d="m308.4,282.31c.8-4.97,2.44-28.09,1.46-34.62-.98-6.53-5.17-25.13-10.25-24.89-5.08.24-4.29,5.79-4.29,5.79,0,0-3.01-7.57-8.1-6.86s-3.58,9.29-3.58,9.29c0,0-3.66-7.55-8.69-6.48-5.03,1.07-2.06,9.45-2.06,9.45,0,0-3.03-7.06-6.8-4.43-4.54,3.16,2.51,15.55,3.06,22.84.12,1.66.11,33.76.11,33.76l39.15-3.84Z"/>
              <g>
                <path class="cls-13" d="m272.65,233.27c5.16,9.12,5.84,14.01,5.34,24.31-.01.2.29.26.32.05,1.4-10.05,1.44-16.3-5.23-24.64-.33-.41-.67-.16-.43.27Z"/>
                <path class="cls-13" d="m283.21,230.31c4.53,9.94,5.32,15.23,5.59,26.07,0,.15.26.16.27,0,.62-10.65.51-16.88-5.33-26.22-.26-.42-.74-.3-.54.15Z"/>
                <path class="cls-13" d="m295.32,229.14c3.69,9.94,4.8,15.71,3.72,26.26-.03.25.33.31.38.06,2.15-10.65.82-17.85-3.79-26.4-.31-.58-.55-.55-.31.08Z"/>
              </g>
            </g>
            <g>
              <path class="cls-7" d="m267.45,292.19s-7.1-11.05-9.15-16.59c-2.05-5.54-2.08-29,2.99-29.3,6.54-.38,9.23,13.16,9.68,19.96,0,0,11.21,2.98,16.14,14.45,4.01,9.31-19.65,11.48-19.65,11.48Z"/>
              <path class="cls-13" d="m265.99,248.9c3.67,4.96,5.13,11.27,5.47,17.34,0,0-.4-.46-.4-.46,5.16,1.29,9.65,4.58,12.74,8.85,1.03,1.41,1.85,2.95,2.56,4.52-1.76-2.93-3.9-5.67-6.59-7.79-2.7-2.19-5.92-3.91-9.29-4.7-.28-6.13-1.43-12.38-4.5-17.76h0Z"/>
            </g>
          </g>
          <g>
            <g>
              <path class="cls-12" d="m258.27,285.8l54.53-2.48s-4.18,53.66-14.83,68.83c-10.05,14.33-22.74,4-27.88-5-7.11-12.45-11.82-61.36-11.82-61.36Z"/>
              <path class="cls-10" d="m278.5,356.46c2.38,1.61,5.01,2.69,7.71,2.79-2.54-.97-5.11-1.9-7.71-2.79Zm24.95-44.98c-7.87-2.41-15.21-5.69-22.57-8.72-7.01-2.88-14.21-5.87-21.7-8.55.17,1.48.37,3.12.58,4.86,13.79,6.44,26.7,13.92,42.62,18.12,1.94.55,3.92.98,5.92,1.31.15-.82.29-1.65.42-2.46-1.61-1.42-3.38-2.94-5.28-4.56Zm-1.79,26.19c-10.41.14-19.23-3.12-29.06-5.44-2.46-.58-5.04-1.1-7.72-1.53.48,2.19.98,4.29,1.5,6.24,10.81,2.57,20.8,6.73,33.03,7.06.85.03,1.7.05,2.55.03.75-2.01,1.46-4.21,2.12-6.53-.8.08-1.61.13-2.43.16Z"/>
            </g>
            <path class="cls-12" d="m268.59,342.6c-.26-1.03-.52-2.05-.8-3.07-.58-2.08-1.08-4.17-1.58-6.27-1.02-4.23-1.99-8.48-2.81-12.75-1.63-8.53-4.34-32.23-4.67-34.63-.02-.13-.55-.28-.58.33-.05.32,1.17,15.73,1.72,20.02,1.11,8.66,2.69,17.3,4.94,25.74.04.14.08.27.12.41-.02.31-.05.62-.07.93-.04.77.02,1.54.08,2.31.12,1.53.47,3.01.89,4.48.03.1.19.07.17-.04-.35-1.5-.43-3.06-.53-4.6-.03-.53-.07-1.06-.11-1.59.49,1.71,1.01,3.42,1.52,5.12.35,1.17.73,2.33,1.15,3.48.41,1.12.74,2.28,1.25,3.35.04.09.17.03.15-.06-.2-1.07-.57-2.12-.83-3.18Z"/>
            <path class="cls-12" d="m281.93,296.75c5.89-.33,11.79-.61,17.68-1.17,3.35-.32,6.7-.62,10.04-.97.13-.01.13-.24,0-.24-5.91.09-11.84.19-17.77.56-5.89.37-11.79.68-17.68,1.13-3.35.26-6.69.61-10.03,1.08-.07,0-.07.12,0,.13,5.91.12,11.83-.19,17.76-.52Z"/>
          </g>
        </g>
      </g>
      <path class="cls-13" d="m278.01,233.23c-17.12,11.9-11.25,27.89-18.26,31.31-18.3,8.95-9.61,16.54-14.81,20.23-4.28,3.03-17.67,2.61-17.25,18.01l57.24,16.28c4.4-8.92-3.63-16.66-2.32-23.47,1.31-6.81,11.09-11.18,2.52-28.96-5.56-11.53,1.08-39.11-7.13-33.4Z"/>
      <g>
        <g>
          <g>
            <path class="cls-7" d="m358.73,465.37c3.76-1.31.28-12.15-3.96-15.46-1.35-1.05-6.33-3.51-12.57-6.43-13.74-6.41-33.5-14.95-33.5-14.95l10.76-58.98-64.75-.12s-15.96,47.58-15.96,60.92c0,18.81,1.93,34.16,3.49,35.11,4.17,2.57,112.71,1.23,116.49-.09Z"/>
            <path class="cls-13" d="m324.63,435.52s.02,0,.09.04c-.02-.02-.04-.04-.06-.04h-.02Z"/>
            <path class="cls-13" d="m238.85,438.28c.45,15.03,2.06,26.36,3.38,27.18,4.18,2.57,112.72,1.22,116.49-.09,3.77-1.31.28-12.17-3.96-15.46-1.35-1.05-6.32-3.51-12.57-6.45-4.6-2.16-9.92-4.56-14.93-6.77,3.58,1.71,10.07,5.14,14.99,9.68,6.92,6.36-72.22,1.18-103.4-8.1Z"/>
          </g>
          <path class="cls-4" d="m142.92,365.2s-3.73,36.53,16.57,51.2c29.73,21.49,73.19,4.02,82.19-14.87,6.69-14.04,14-60.22,14-60.22,0,0-8.77,22.75-12.53,42.88-2.52,13.49-4.3,38.87-4.3,38.87h71.07s13.68-39.12,17.65-108.32c1.45-25.31-33.06-42.96-56.58-30.08-22.8,12.49-82.95,80.55-82.95,80.55h-45.12Z"/>
          <path class="cls-13" d="m274.98,409.68c-9.12-.1-18.23-.64-27.34-.82-.17,0-.21-.28-.03-.28,9.08-.05,18.14-.41,27.23-.3,9.12.11,18.22.58,27.34.9.23,0,.28.38.04.38-9.08.02-18.15.22-27.24.12Z"/>
          <path class="cls-13" d="m238.85,423.05c.23-14.06,1.05-28.08,2.63-42.06.48-3.51.82-7.05,1.8-10.48,3.05-10.19,9.04-19.29,15.86-27.31-2.04,2.86-3.99,5.77-5.76,8.79-3.55,5.96-6.79,12.23-8.6,18.93-.91,3.34-1.24,6.83-1.68,10.26-1.63,13.92-2.74,27.92-4.25,41.86h0Z"/>
        </g>
        <g class="cls-6">
          <path d="m358.74,465.37h-.01c-.55.2-3.32.39-7.68.57-.28.01-.58.02-.87.03-.86.04-1.77.08-2.73.1-.95.03-1.97.07-3.03.1-1.4.04-2.9.09-4.45.12h-.02c-1.17.03-2.37.07-3.61.09h-.02c-.82.01-1.66.03-2.51.05h-.02c-.85.02-1.73.04-2.61.05-.45.01-.91.02-1.37.02-1.34.03-2.71.05-4.11.08-2.35.04-4.78.08-7.25.11-.97.01-1.95.02-2.93.03-32.14.4-70.8.24-73.26-1.27-.04-.03-.1-.08-.14-.13-.05-.05-.1-.13-.15-.22-.4-.68-.82-2.21-1.2-4.43-.05-.27-.1-.57-.14-.86-.15-.89-.3-1.87-.43-2.95-.04-.36-.09-.73-.13-1.1-.07-.46-.12-.95-.16-1.44-.15-1.37-.28-2.83-.4-4.37-.03-.39-.07-.79-.09-1.18-.09-1.16-.16-2.36-.23-3.61-.01-.04-.01-.08-.01-.12-.12-2.14-.22-4.4-.3-6.75h.02c-.08-2.55-.12-5.2-.12-7.94,0-1.74.3-4.24.82-7.29h-.72s.87-9.21,2.07-20.06c-10.49,18.3-52.46,34.33-81.43,13.41-20.29-14.67-16.57-51.2-16.57-51.2h45.12s60.15-68.06,82.96-80.55c23.51-12.88,58.03,4.78,56.58,30.09-3.97,69.21-17.65,108.32-17.65,108.32h-.25l-.97,5.48s7.19,3.12,15.93,6.99h.02s.02.01.03.03t.02.01c.84.36,1.69.74,2.56,1.14.62.27,1.26.56,1.89.83,4.43,1.97,9.01,4.05,13.03,5.94.39.19.78.36,1.16.55.75.35,1.5.7,2.21,1.05.71.34,1.39.67,2.04.98,3.59,1.75,6.22,3.14,7.15,3.86.19.14.37.31.57.48.91.85,1.76,2.03,2.5,3.37,0,.01.01.01.01.01.3.54.57,1.08.82,1.65.51,1.14.93,2.33,1.22,3.47.79,3.09.63,5.86-1.15,6.48Z"/>
        </g>
      </g>
      <g>
        <path class="cls-12" d="m237.88,340.64l1.91,25-102,12.62s22.12-81.18,57.78-105.13c18.26-12.26,27.79-6.56,33.74,4.94,4.37,8.45,12.78,32.45,17.05,45.78,2.38,7.41-8.49,16.79-8.49,16.79Z"/>
        <g>
          <path class="cls-13" d="m207.94,333.8c4.33.44,8.68,1.06,12.93,2.3,2.11.62,4.19,1.36,6.27,2.16,1.04.4,2.08.75,3.12,1.1,1.07.36,2.22.68,3.33.69.1,0,.1.19,0,.2-1.08.07-2.11.13-3.19.02-1.03-.11-2.05-.36-3.06-.64-2.15-.6-4.28-1.33-6.42-1.96-4.33-1.27-8.65-2.54-13.03-3.42-.2-.04-.17-.48.04-.45Z"/>
          <path class="cls-13" d="m197.42,338.99c3.53-.56,7.14-.92,10.7-.97,1.79-.03,3.58.08,5.37.25.86.08,1.71.18,2.56.29.94.12,1.87.41,2.81.51.1.01.1.2,0,.2-.89-.07-1.79.05-2.67.05-.89,0-1.79-.01-2.68-.01-1.79,0-3.58.02-5.36,0-3.58-.05-7.15-.05-10.72.06-.19,0-.19-.35,0-.37Z"/>
        </g>
        <path class="cls-9" d="m214.76,266.32h0c-7.83,2.45-14.39,5.78-21.6,8.76-.21.1-.42.19-.64.29-2.25,1.75-4.45,3.73-6.58,5.89,3.51-1.04,6.92-2.18,10.25-3.37,8.7-2.96,16.93-6.48,26.38-8.37.05,0,.09-.02.14-.02-2.26-1.79-4.88-2.92-7.94-3.17Zm23.75,82.46c-18.13-.24-35.47,4-50.76,9.49-8.71,2.97-16.94,6.49-26.4,8.38-4.44.88-8.78.82-13.27.43-2.26-.19-4.45-.5-6.6-.9-.67,2.06-1.26,3.9-1.75,5.48,8.07,1.19,16.75,1.45,24.34-.4,10.2-2.46,17.98-6.58,26.69-10.18,13.83-6.12,30.6-10.84,47.88-10.44l-.14-1.86Zm-5.18-61.6c-5.13-.9-10.42-1.47-15.9-1.63-13.96-.33-27.5,2.02-40,5.61-1.04,1.38-2.07,2.8-3.08,4.25,14.91-5.8,32.56-9.61,50.35-7.44,3.34.45,6.55,1.06,9.64,1.79-.34-.89-.69-1.75-1.02-2.59Zm6.08,43.75c-10.2,2.46-17.97,6.58-26.68,10.19-16.03,7.08-36.01,12.3-56.16,9.85-3.17-.42-6.21-1-9.14-1.68-.29.75-.56,1.49-.83,2.23,5.55,1.03,11.27,1.7,17.24,1.88,18.54.44,36.29-3.87,51.92-9.46,8.7-2.96,16.93-6.49,26.38-8.38.19-.04.38-.07.56-.1,1.27-1.66,2.5-3.59,3.25-5.59-2.24.2-4.43.55-6.54,1.07Z"/>
      </g>
      <g>
        <g>
          <path class="cls-7" d="m387.68,465.31c3.76-1.31.28-12.15-3.96-15.46-1.35-1.05-6.33-3.51-12.57-6.43-13.74-6.41-38.06-16.44-38.06-16.44l-12.67-61.3-70.62,1.2,17.9,63.41c0,18.81,1.93,34.16,3.49,35.11,4.17,2.57,112.71,1.23,116.49-.09Z"/>
          <path class="cls-13" d="m353.58,435.46s.02,0,.09.04c-.02-.02-.04-.04-.06-.04h-.02Z"/>
          <path class="cls-13" d="m267.8,438.22c.45,15.03,2.06,26.36,3.38,27.18,4.18,2.57,112.72,1.22,116.49-.09,3.77-1.31.28-12.16-3.96-15.46-1.35-1.05-6.32-3.51-12.57-6.45-4.6-2.16-9.92-4.56-14.93-6.77,3.58,1.71,10.07,5.14,14.99,9.68,6.92,6.36-72.22,1.18-103.4-8.1Z"/>
        </g>
        <g>
          <path class="cls-4" d="m137.8,378.26s-10.27,33.37,3.55,63.02c10.27,22.03,32.38,24.82,57.75,24.82s47.67-11.63,61.28-40.22c18.89-39.68-17.28-97.07-17.28-97.07,0,0-5.23,21.65,2.63,45.6,6.54,19.93,19.66,48.65,19.66,48.65h66.71s-8.49-53.63-27.48-126.61c-6.38-24.54-27.83-32.54-51.34-19.66-22.8,12.49-65.23,88.41-65.23,88.41l-50.25,13.06Z"/>
          <path class="cls-13" d="m293.73,408.95c-9.12-.1-18.23-.64-27.34-.82-.17,0-.21-.28-.03-.28,9.08-.05,18.14-.41,27.23-.3,9.12.11,18.22.58,27.34.9.23,0,.28.38.04.38-9.08.02-18.15.22-27.24.12Z"/>
          <path class="cls-13" d="m265.39,423.05c-7.69-15.65-14.73-31.65-20.27-48.21-1.38-4.16-2.65-8.39-3.36-12.72-2.18-12.95-1.47-26.37,1.34-39.13-.62,4.31-1.02,8.65-1.21,12.99-.66,12.98.42,26.06,4.75,38.38,5.45,16.52,12.11,32.62,18.75,48.7h0Z"/>
          <path class="cls-13" d="m188.04,365.2c-2.26,7.36-6.52,14.34-12.52,19.23,4.3-6.4,8.2-12.81,12.52-19.23h0Z"/>
        </g>
      </g>
      <g>
        <g>
          <path class="cls-7" d="m190.09,292.92c2.98,28.64,14.79,74.59,22.04,81.89,6.41,6.46,42.66,8.53,58.8,8.12,6.04-.16,2.48-46.62-3.97-46.33-7.74.36-30.65.6-31.98-.95-1.46-1.7-15.55-28.72-27.75-48.04-11.06-17.51-18.26-5.53-17.13,5.31Z"/>
          <g>
            <path class="cls-7" d="m326.93,334c2.12,4.43-1.59,7.9-1.59,7.9,0,0,3.37,2,4.35,5.64,1.12,4.16-4.92,7.75-4.92,7.75,0,0,2.99,2.73,3.64,6.68.67,4.09-4.91,8.58-4.91,8.58,0,0,1.39,4.08-.5,7.89-3.23,6.51-14.27,7.61-21.29,8.38-7.02.77-27.63-3.63-31.65-4.07l-5.31-44.98s30.48-12.39,38.86-12.12c7.06.23,20.94,3.41,23.32,8.38Z"/>
            <g>
              <path class="cls-13" d="m325.17,341.69c-7.44-2.04-15.09-1.77-22.73-1.93-.17,0-.17.26,0,.26,7.6.07,15.1,1.65,22.68,2.03.21.01.25-.31.05-.36Z"/>
              <path class="cls-13" d="m324.56,354.97c-1.7-.41-3.53-.26-5.26-.21-1.86.05-3.73.14-5.59.26-3.73.23-7.45.54-11.16.97-.16.02-.18.27,0,.26,3.71-.22,7.43-.39,11.15-.46,1.86-.03,3.72-.05,5.59-.06,1.73,0,3.56.14,5.26-.26.25-.06.26-.45,0-.51Z"/>
              <path class="cls-13" d="m323.47,370.54c-1.46-.42-3.25-.06-4.74.06-1.7.14-3.39.27-5.09.39-3.39.24-6.79.48-10.19.61-.17,0-.17.27,0,.26,3.46-.11,6.91-.17,10.37-.31,1.7-.07,3.39-.15,5.09-.23,1.44-.07,3.25,0,4.59-.61.07-.03.05-.15-.02-.17Z"/>
            </g>
          </g>
        </g>
        <g>
          <path class="cls-12" d="m265.92,390.09l-.3-54.83-29.55-.92c-9.53-14.81-23.41-41.04-30.85-50.71-8.73-11.34-17.17-6.02-16.19,8.52,2.24,33.27,16.4,80.11,22.31,85.99,8.47,8.42,54.58,11.94,54.58,11.94Z"/>
          <path class="cls-9" d="m265.62,335.26l-29.56-.92c-.44-.68-.88-1.38-1.34-2.1-8,2.46-14.67,5.86-21.99,8.89-4.3,1.9-8.89,3.67-13.69,5.18.24.87.49,1.75.73,2.59,5.53-1.44,10.87-3.13,15.99-4.97,8.7-2.96,16.93-6.49,26.38-8.38,4.45-.88,8.78-.82,13.27-.42,3.55.29,6.93.88,10.22,1.64v-1.51Zm-58.82-49.46c-6.08.42-12.03,1.3-17.82,2.5-.03.77-.05,1.57-.02,2.41,6.13-1.56,12.54-2.68,19.07-3.12-.42-.63-.83-1.23-1.22-1.79Zm58.92,66.83c-8.25-2.11-16.89-3.54-26.05-3.82-13.38-.32-26.34,1.84-38.39,5.16.28.91.56,1.81.84,2.69,13.65-4.62,29.18-7.33,44.82-5.43,6.77.91,12.96,2.47,18.79,4.45l-.02-3.05Zm-73.69-73.3c1.39-.47,2.78-.95,4.15-1.44.29-.1.57-.2.85-.29-1.93-.32-3.65.31-5,1.74Zm73.88,109.32c-2.33.12-4.64.38-6.87.81,4.19.42,6.88.63,6.88.63v-1.44Z"/>
          <g>
            <path class="cls-13" d="m256.94,383.36c-.65-3.37-.98-17.56-1.02-21.1-.04-3.46.26-17.72.23-21.35,0-.2.28-.26.28-.06.09,3.59.9,17.82.98,21.36.08,3.54.24,17.7-.28,21.14-.02.12-.16.12-.18.01Z"/>
            <g>
              <path class="cls-13" d="m246.26,387.93c-4.75-.59-9.49-1.36-14.2-2.26-4.7-.92-9.41-1.91-14-3.42-2.34-.82-4.65-1.6-6.66-3.15-1.93-1.74-3.02-3.92-4.18-6.14-2.16-4.35-3.78-8.9-5.32-13.46-5.88-18.29-10-37.07-13.01-56.01,5.9,21.76,11.22,48.1,19.74,68.8.96,2.03,2.01,4.3,3.59,5.84,1.75,1.43,4.06,2.3,6.19,3.1,9.01,3.13,18.47,4.97,27.84,6.71h0Z"/>
              <path class="cls-13" d="m190.5,311.52c-.89-1.57-1.75-3.22-2.04-5.01.6,1.68,1.46,3.32,2.04,5.01h0Z"/>
            </g>
            <g>
              <path class="cls-13" d="m214.78,297.92c7.56,11.57,13.71,24.01,21.19,35.62.1.14.22.29.3.36.63.14,1.68.19,2.46.24,6.04.33,20.66.79,26.89,1.08,0,0,.05,0,.05,0v.05s-.04,1.39-.04,1.39l-.06-1.39.05.05c-8.98.14-17.96.16-26.94-.24-.86-.06-1.72-.07-2.61-.23-.14-.01-.39-.16-.45-.23-1.38-1.61-2.34-3.5-3.43-5.28-3-5.19-5.95-10.39-8.79-15.66-2.52-4.58-6-11.29-8.61-15.75h0Z"/>
              <path class="cls-13" d="m217.51,300.13c.71,1.67,1.37,3.41,1.45,5.23-.4-1.74-1.07-3.48-1.45-5.23h0Z"/>
            </g>
          </g>
        </g>
      </g>
      <g>
        <g>
          <path class="cls-7" d="m216.21,269.7c-1.08,1.57-3.99,16.23,2.02,22.22,1.96,1.95,13.07-8.29,13.07-8.29l.99-.57,13.89-7.96-3.69-21.49-.64-3.01s-3.66,2.43-8.18,5.5c-.21.14-.42.28-.64.44-.26.17-.51.32-.74.49-.68.45-1.38.91-2.06,1.39-.52.36-1.03.71-1.56,1.1-.54.39-1.06.77-1.61,1.15-5.28,3.91-10.39,8.37-10.85,9.03Z"/>
          <path class="cls-13" d="m233.68,256.11c-6.16,11.69-3.2,22.44-1.38,26.96l13.89-7.96-3.69-21.49-.64-3.01s-3.66,2.43-8.18,5.5Z"/>
        </g>
        <g>
          <path class="cls-7" d="m277.28,265.46c-10.98,25.86-27.71,22.2-33.28,19.83-5.06-2.15-22.01-10.13-13.77-36.99,8.25-26.86,23.74-29.93,35.58-25.61,11.83,4.32,22.45,16.91,11.47,42.77Z"/>
          <path class="cls-13" d="m268.65,221.63c-12.29-6-23.88-7.56-31.51-3.4-15.89,8.68-18.76,33.32-25.13,35.63-16.63,6.03-9.83,13.39-14.67,16.09-3.97,2.22-15.5,2.87-16.56,16.2,0,0,10.78-9.83,19.06-9.28,7.69.51,10.38,11.28,14.3,20.35,3.69,8.54,8.85,15.42,8.85,15.42,9.4-6.83,13.91-16.8,14.72-51.2.36-15.3,30.93-39.82,30.93-39.82Z"/>
          <path class="cls-13" d="m227.05,246.05c2.83,1.85,9.48,6.11,15.79,4.92,3.48-.66,7.44-2.86,12.05-8.19,8.05-9.32,19.01-12.26,26.84.12,0,0,7.77-8.47,3.3-15.98-4.47-7.51-14.75-4.69-14.75-4.69,0,0-13.78-9.53-27.69-2.82-13.91,6.71-15.53,26.65-15.53,26.65Z"/>
          <g>
            <path class="cls-7" d="m239.64,253.59s-1.3-10.62-5.84-10.56c-4.54.07-6.43,13.46-3.12,17.18,3.31,3.73,6.82.73,6.82.73l2.14-7.36Z"/>
            <path class="cls-13" d="m233.36,246.89c-.06-.04-.13.05-.08.1,2.27,2.71,2.37,6.2,1.96,9.55-.29-1.53-1.15-2.74-3.13-2.47-.1.01-.09.17,0,.2,1.32.38,2.07,1.03,2.36,2.41.21.97.15,2.03.14,3.02,0,.33.54.44.6.09,0-.03,0-.05.01-.08,2.03-3.65,1.9-10.33-1.86-12.81Z"/>
          </g>
          <g>
            <path class="cls-8" d="m257.57,257.08c-2.98-2.18-7.12,3.93-4.36,5.95,2.71,1.99,6.85-4.13,4.36-5.95Z"/>
            <path class="cls-8" d="m271.65,262.74c-2.86-1.28-5.67,5.54-3.02,6.73,2.61,1.17,5.42-5.65,3.02-6.73Z"/>
            <path class="cls-13" d="m275.46,260c-.41-.51-.88-.91-1.34-1.38-.52-.52-.88-.99-1.64-1.14-.41-.08-.91.26-1.02.65-.27.9.21,1.7.81,2.35.65.71,1.34,1.09,2.29,1.23.92.13,1.44-1.04.9-1.71Z"/>
            <path class="cls-13" d="m257.14,250.72c.65-.07,1.27-.02,1.92-.02.74,0,1.33-.07,1.97.36.34.23.45.83.26,1.18-.45.83-1.35,1.05-2.24,1.08-.96.04-1.72-.18-2.49-.76-.75-.56-.28-1.76.58-1.84Z"/>
            <g>
              <g>
                <path class="cls-13" d="m258.32,259.26c.02-.07-.17.02-.2.09-.71,1.76-1.81,3.66-3.64,3.55-.06,0-.09.09-.03.1,2.04.57,3.48-1.96,3.87-3.74Z"/>
                <path class="cls-13" d="m257.57,256.76c-2.7-1.44-5.38,4.07-2.88,5.4,2.46,1.31,5.14-4.2,2.88-5.4Z"/>
              </g>
              <path class="cls-13" d="m256.34,256.53c-.63.08-1.37.4-1.98.17-.7-.26-.93-1.08-1.1-1.85-.02-.08-.09-.05-.13.02-.53,1.05-.65,2.33.41,3.03.96.65,2.16.07,2.94-.86.14-.17.11-.55-.14-.51Z"/>
            </g>
            <g>
              <g>
                <path class="cls-13" d="m268.96,263.49c.05-.06.09.15.06.21-.9,1.67-1.64,3.74-.38,5.07.04.04,0,.12-.06.09-1.74-1.19-.73-3.93.39-5.37Z"/>
                <path class="cls-13" d="m271.36,262.47c2.84,1.15.33,6.73-2.3,5.67-2.59-1.05-.08-6.63,2.3-5.67Z"/>
              </g>
              <path class="cls-13" d="m272.36,263.36c.31.49.5,1.23,1.02,1.5.59.31,1.32-.09,1.97-.49.07-.04.09.02.06.1-.45,1.08-1.3,2.04-2.42,1.78-1.02-.23-1.3-1.46-1.07-2.63.04-.22.33-.45.45-.25Z"/>
            </g>
            <path class="cls-13" d="m250.69,273.43c.19.61.29,1.36.87,1.74.55.36,1.38.47,2.02.55.06,0,.09.09.03.12-.78.4-1.91.31-2.61-.24-.68-.54-.7-1.4-.51-2.19.03-.11.17-.08.2.01Z"/>
            <path class="cls-13" d="m262.35,270.28s-.85,2.73-1.42,3.94c-.05.11-3.36-1.8-7.46-2.28-.62-.07-.4-.52.37-.59,1.53-.15,3.41-.15,6.55,1.33.24-.29,1.24-4.23,1.44-4.15.69.26,1.78,1.32,2.45,1.92,1.95-5.63,2.97-11.53,4.99-17.11.08-.2.38-.13.35.07-.64,6.26-2.73,12.79-4.59,18.66-.22.73-2.28-1.35-2.67-1.78Z"/>
            <g>
              <path class="cls-13" d="m257.92,273s-2.53,2.36-4.48,1.77c-2.24-.68-1.71-3.54,1.1-3.49,1.47.02,3.37,1.73,3.37,1.73Z"/>
              <path class="cls-3" d="m256.26,274.18c-.84.47-1.91.85-2.83.57-1.18-.35-1.59-1.32-1.3-2.15h0s.03-.05.05-.08c2.67-.13,3.7.77,4.07,1.66Z"/>
            </g>
          </g>
          <path class="cls-13" d="m261.65,284.7c8.33-4.52,13.19-13.35,16.65-21.84.48-1.25.92-2.53,1.43-3.78-.29,1.32-.64,2.62-.96,3.94-2.76,8.84-8.04,18.23-17.11,21.68h0Z"/>
        </g>
      </g>
    </g>
  </g>
  <g id="Impaired_concentration" data-name="Impaired concentration">
    <g>
      <path class="cls-13" d="m380.37,255.44c-.07-.29.1-.58.4-.65.28-.07.59.1.66.39l1.36,5.6c.07.29-.12.58-.4.65-.29.07-.58-.1-.65-.4l-1.36-5.6Z"/>
      <path class="cls-13" d="m389.36,253.71l.92,5.69c.05.29-.16.57-.45.62-.3.05-.57-.16-.62-.44l-.66-4.06-1.08,2.15c-.08.16-.23.26-.4.29h-.01s0,0,0,0c-.17.03-.35-.02-.48-.15l-1.69-1.71.66,4.06c.05.29-.15.57-.45.62-.29.05-.57-.15-.62-.44l-.92-5.69c-.05-.29.16-.57.44-.62t.03,0c.15-.03.34.02.46.15l2.35,2.35,1.49-2.97c.08-.16.23-.26.4-.29h.01c.29-.04.58.15.63.44Z"/>
      <path class="cls-13" d="m394.17,256.97l-1.2.08.15,2.12c.02.29-.21.55-.51.57-.29.02-.55-.21-.57-.5l-.41-5.75c-.02-.3.21-.55.5-.58h0s1.74-.12,1.74-.12c1.16-.08,2.16.79,2.25,1.95.08,1.14-.79,2.14-1.95,2.22Zm-1.28-1l1.2-.08c.56-.04.97-.52.94-1.07-.05-.57-.52-.98-1.09-.94l-1.2.08.14,2.01Z"/>
      <path class="cls-13" d="m400.46,257.87h-2.37s-.48,1.26-.48,1.26c-.09.21-.29.34-.51.34-.07,0-.13,0-.19-.03-.28-.11-.42-.42-.32-.7l2.18-5.74c.09-.22.3-.35.52-.34.22,0,.43.13.52.34l2.13,5.76c.1.28-.04.6-.33.7-.05.02-.12.03-.19.03-.21,0-.42-.13-.5-.34l-.47-1.27Zm-.4-1.08l-.78-2.1-.8,2.1h1.58Z"/>
      <path class="cls-13" d="m403.64,253.32c.02-.3.27-.52.57-.5.29.02.53.27.51.57l-.38,5.75c-.02.3-.29.52-.58.5-.3-.02-.52-.27-.5-.57l.38-5.75Z"/>
      <path class="cls-13" d="m410.63,259.6c.06.29-.13.57-.43.63-.04,0-.12.01-.22,0h0c-.1-.01-.24-.05-.36-.16-.12-.09-.21-.23-.27-.38-.1-.3-.12-.66-.05-1.19.01-.19,0-.32-.06-.43-.04-.11-.15-.23-.25-.32-.19-.16-.43-.27-.51-.3l-1.14-.15-.28,2.1c-.04.29-.31.5-.61.46-.3-.04-.5-.31-.46-.6l.75-5.72c.04-.3.3-.5.6-.46h0s1.72.23,1.72.23c1.15.15,1.95,1.2,1.8,2.35-.08.64-.45,1.16-.96,1.49.11.11.21.24.29.4.16.31.24.68.18,1.09-.05.29-.04.48-.04.58.15.07.26.2.3.37Zm-.85-4.07c.07-.56-.31-1.07-.87-1.14l-1.19-.16-.26,2,1.19.16c.55.07,1.06-.31,1.13-.86Z"/>
      <path class="cls-13" d="m412.06,260.15l1.21-5.64c.06-.3.34-.48.64-.41h0s0,0,.02,0l3.1.66c.28.06.48.34.41.64-.06.3-.36.48-.64.42l-2.59-.55-.38,1.75,2.23.48c.29.06.47.36.41.64-.06.3-.35.48-.64.42l-2.23-.48-.38,1.76,2.59.56c.28.06.47.35.41.65-.06.29-.36.47-.64.41l-3.1-.66s-.02-.01-.02-.01h-.01c-.3-.06-.47-.34-.41-.63Z"/>
      <path class="cls-13" d="m417.6,261.4l1.71-5.51c.09-.29.38-.44.67-.35l1.1.34c1.8.56,2.8,2.48,2.25,4.27-.56,1.81-2.47,2.83-4.28,2.27l-1.1-.34c-.29-.09-.44-.39-.35-.67Zm1.2-.2l.58.18c1.23.37,2.53-.31,2.92-1.55.38-1.22-.3-2.53-1.53-2.91l-.58-.18-1.39,4.46Z"/>
      <path class="cls-13" d="m427.88,261.79c.84-1.74,2.98-2.47,4.75-1.64.78.37,1.36.96,1.71,1.66.13.28.02.6-.25.75-.28.14-.62.02-.75-.24-.24-.5-.64-.9-1.19-1.16-.61-.29-1.29-.31-1.89-.12-.59.22-1.09.63-1.37,1.23-.28.6-.3,1.27-.08,1.84.23.59.68,1.1,1.29,1.39.55.26,1.1.32,1.65.19.28-.05.58.14.66.43.05.3-.13.6-.42.66-.76.17-1.59.09-2.37-.28-1.77-.84-2.56-2.95-1.73-4.72Z"/>
      <path class="cls-13" d="m440.79,265.94c.18.87.05,1.8-.46,2.62-.51.82-1.29,1.37-2.14,1.59-.82.24-1.77.14-2.54-.33-.8-.49-1.32-1.29-1.49-2.14-.18-.86-.04-1.79.47-2.61.51-.82,1.26-1.37,2.12-1.6.85-.24,1.79-.13,2.59.36.77.47,1.29,1.26,1.44,2.11Zm-1.4,2.04c.35-.57.45-1.23.33-1.8-.12-.59-.45-1.09-.95-1.4-.53-.33-1.13-.4-1.71-.24-.58.15-1.11.54-1.46,1.11-.35.57-.45,1.22-.33,1.8.12.59.45,1.1.98,1.43.5.31,1.1.37,1.68.21.56-.15,1.11-.53,1.46-1.1Z"/>
      <path class="cls-13" d="m440.91,272.67c-.18.23-.52.28-.75.1-.24-.18-.28-.52-.1-.75l3.47-4.5h0c.09-.15.26-.24.44-.23.29.02.53.26.52.55l-.17,5.39,2.46-3.19c.17-.22.51-.27.74-.1.23.18.28.52.1.75l-3.47,4.5c-.18.23-.52.28-.75.1-.12-.1-.19-.25-.2-.4,0-.03,0-.05,0-.08l.17-5.34-2.48,3.21Z"/>
      <path class="cls-13" d="m447.7,274.26c1.34-1.39,3.6-1.41,5.02-.07.62.59.99,1.34,1.11,2.11.04.3-.17.58-.47.63-.31.04-.6-.18-.64-.46-.07-.55-.33-1.06-.77-1.47-.49-.47-1.13-.7-1.76-.7-.63.02-1.23.26-1.69.74-.46.48-.68,1.11-.66,1.72.04.63.3,1.26.79,1.72.44.42.95.65,1.51.7.28.04.51.31.49.62-.04.3-.31.53-.61.5-.78-.08-1.54-.41-2.16-1.01-1.41-1.35-1.5-3.61-.17-5.02Z"/>
      <path class="cls-13" d="m451.15,281.84l4.35-3.79c.23-.2.56-.18.76.05h0s0,0,.01.02l2.08,2.39c.19.21.18.56-.05.76-.23.2-.58.17-.77-.05l-1.74-2-1.35,1.18,1.5,1.72c.19.22.16.57-.05.76-.23.2-.57.18-.77-.05l-1.5-1.72-1.36,1.18,1.74,2c.19.21.17.57-.06.76-.22.19-.57.16-.76-.05l-2.08-2.39s0-.02,0-.02h-.01c-.2-.23-.17-.57.05-.76Z"/>
      <path class="cls-13" d="m455.48,287.05c-.24.17-.58.12-.74-.11-.18-.25-.12-.58.12-.75l4.61-3.32h0c.13-.11.32-.15.49-.09.28.1.43.4.34.67l-1.7,5.11,3.27-2.35c.23-.16.57-.12.74.12.17.24.12.58-.11.74l-4.61,3.32c-.24.17-.58.12-.75-.12-.09-.13-.11-.29-.07-.44,0-.03,0-.05.02-.07l1.69-5.07-3.29,2.37Z"/>
      <path class="cls-13" d="m465.68,293.16l-.79-1.34-4.5,2.64c-.26.15-.58.07-.74-.19-.15-.25-.07-.58.19-.74l4.5-2.64-.78-1.33c-.15-.26-.05-.59.2-.74.26-.15.58-.07.74.19l2.11,3.6c.15.25.07.58-.19.74-.25.15-.6.07-.74-.19Z"/>
      <path class="cls-13" d="m464.31,301.55c-.21.21-.55.2-.77-.01-.03-.03-.08-.09-.12-.18h0c-.04-.1-.09-.24-.07-.4.02-.15.08-.3.17-.43.2-.25.49-.46.97-.69.16-.09.26-.18.33-.29.07-.1.11-.25.13-.39.04-.24,0-.51-.02-.59l-.5-1.04-1.91.91c-.26.13-.59.01-.72-.26-.13-.27-.01-.59.25-.72l5.2-2.48c.27-.13.59-.02.72.25h0s.75,1.58.75,1.58c.5,1.05.05,2.29-1,2.79-.58.28-1.22.26-1.78,0-.03.16-.09.31-.18.46-.17.3-.44.57-.81.74-.27.12-.42.22-.5.28.02.16-.03.33-.15.45Zm2.96-2.93c.51-.24.72-.84.48-1.35l-.52-1.09-1.82.87.52,1.08c.24.5.84.72,1.33.48Z"/>
      <path class="cls-13" d="m466.87,305.93l-.84-2.23h-1.36c-.23,0-.42-.16-.5-.36-.02-.06-.04-.12-.04-.19,0-.3.25-.54.55-.55h6.15c.23,0,.44.16.5.37.09.21.03.45-.14.61l-4.64,4.05c-.23.19-.57.17-.77-.06-.04-.04-.07-.1-.09-.16-.08-.2-.03-.44.14-.59l1.02-.9Zm.87-.75l1.69-1.48h-2.25s.56,1.48.56,1.48Z"/>
      <path class="cls-13" d="m472.63,310.55l-.43-1.49-5.01,1.46c-.29.08-.58-.07-.67-.37-.08-.28.07-.58.37-.67l5.01-1.46-.43-1.48c-.09-.29.09-.59.38-.67.29-.08.58.07.67.37l1.17,4.01c.08.28-.07.58-.37.67-.28.08-.59-.08-.68-.36Z"/>
      <path class="cls-13" d="m473.73,312.82c.3-.07.58.11.64.41.06.29-.11.59-.41.65l-5.63,1.25c-.3.07-.58-.13-.64-.42-.07-.3.11-.58.41-.64l5.63-1.25Z"/>
      <path class="cls-13" d="m474.9,321.42c-.55.69-1.35,1.19-2.31,1.32-.96.14-1.87-.12-2.59-.63-.71-.48-1.24-1.28-1.36-2.17-.13-.93.15-1.84.7-2.52.54-.69,1.35-1.17,2.31-1.3.96-.14,1.86.1,2.58.61.72.5,1.24,1.29,1.37,2.22.13.89-.15,1.8-.71,2.46Zm-2.47.22c.66-.09,1.23-.44,1.6-.9.38-.47.55-1.05.47-1.63-.09-.62-.42-1.13-.91-1.47-.48-.35-1.13-.51-1.79-.42-.66.09-1.23.43-1.59.9-.38.47-.56,1.05-.47,1.67.08.58.42,1.09.91,1.43.47.34,1.12.51,1.78.42Z"/>
      <path class="cls-13" d="m469.78,325.78c-.29,0-.54-.23-.55-.51,0-.3.23-.54.52-.55l5.67-.18h.01c.17-.02.34.06.46.2.17.24.14.57-.09.75l-4.26,3.3,4.02-.13c.28,0,.54.22.55.51,0,.29-.23.55-.51.55l-5.67.19c-.29,0-.54-.23-.55-.52,0-.16.07-.31.18-.41.02-.02.04-.04.06-.05l4.23-3.27-4.05.13Z"/>
    </g>
    <g>
      <path class="cls-11" d="m371.75,238.55c-.82-.45-1.81.15-1.84,1.05-.01.07-.02.14-.02.21.05.94,1.14,1.45,1.92.95.81-.52.8-1.75-.06-2.22Z"/>
      <path class="cls-11" d="m445.72,259.15c-.82-.45-1.81.15-1.84,1.05-.01.07-.02.14-.02.21.05.94,1.14,1.45,1.92.95.81-.52.8-1.75-.06-2.22Z"/>
      <path class="cls-11" d="m432.31,215.18c-.82-.45-1.81.15-1.84,1.05-.01.07-.02.14-.02.21.05.94,1.14,1.45,1.92.95.81-.52.8-1.75-.06-2.22Z"/>
      <path class="cls-11" d="m376.27,237.43c-.22.26-.27.58-.13.87.17.6,1.15.91,1.58.2.56-.93-.74-1.91-1.45-1.06Z"/>
      <path class="cls-11" d="m369.89,234.92c-.79,0-.79,1.23,0,1.23s.79-1.23,0-1.23Z"/>
      <path class="cls-11" d="m372.41,288.04c-.79,0-.79,1.23,0,1.23s.79-1.23,0-1.23Z"/>
      <path class="cls-11" d="m421.25,209.75c-.79,0-.79,1.23,0,1.23s.79-1.23,0-1.23Z"/>
      <path class="cls-11" d="m440.01,254.46c-.79,0-.79,1.23,0,1.23s.79-1.23,0-1.23Z"/>
    </g>
    <g>
      <path class="cls-1" d="m446.31,291.71c-12.92-20.05-39.65-25.83-59.7-12.9-20.05,12.92-25.83,39.65-12.9,59.7,12.92,20.05,39.65,25.83,59.7,12.9,20.05-12.92,25.83-39.65,12.9-59.7Z"/>
      <path class="cls-13" d="m446.52,291.58c-9.13-14.56-27.34-22.52-44.31-19.36-14.4,2.54-26.5,12.08-32.38,25.51-5.89,13.46-4.68,28.85,3.24,41.19,7.96,12.31,21.48,19.77,36.17,19.96.2,0,.39,0,.59,0,14.44,0,27.87-7.06,36.02-18.96,9.88-14.14,10.16-34.02.67-48.35Zm-37.16,66.02c-14.3-.28-27.39-7.57-35.03-19.5-7.71-11.88-8.94-26.81-3.29-39.95,5.66-13.16,17.37-22.56,31.32-25.14,2.58-.51,5.18-.76,7.79-.76,14.2,0,28.24,7.42,35.95,19.59h0c9.35,14.26,8.97,33.84-.92,47.62-7.95,11.41-20.97,18.15-34.96,18.14-.28,0-.57,0-.86,0Z"/>
      <g>
        <path class="cls-13" d="m389.35,326.49l-.14-4.44c-.01-.46-.3-.88-.76-1.09-.25-.12-.5-.25-.75-.38-.25-.13-.49-.27-.73-.41-.43-.26-.94-.27-1.33-.02h0l-3.77,2.34-6.81-10.98,3.77-2.33c.4-.25.62-.71.58-1.2-.05-.56-.07-1.13-.05-1.7.01-.49-.24-.93-.65-1.15l-3.91-2.09,6.11-11.39,3.91,2.09c.41.22.92.19,1.32-.09.46-.32.95-.62,1.44-.89.43-.24.69-.68.68-1.15l-.14-4.43,12.92-.4.13,4.44c.01.46.31.88.76,1.1.25.12.5.24.75.38s.49.27.73.41c.42.26.93.27,1.32.03l3.79-2.35,6.81,10.98-3.77,2.34c-.4.25-.62.71-.58,1.2.05.56.07,1.13.06,1.69-.01.49.24.93.65,1.15l3.91,2.09-6.11,11.39-3.91-2.09c-.41-.22-.92-.18-1.32.09-.46.32-.95.62-1.44.89-.43.24-.69.68-.68,1.15l.14,4.44-12.92.4Zm-3.07-8.97c.68,0,1.36.19,1.97.56.2.12.41.24.62.35.21.11.42.22.64.32,1.29.61,2.11,1.85,2.16,3.23l.06,1.99,8.03-.25-.06-1.99c-.04-1.4.7-2.69,1.95-3.37.42-.23.83-.48,1.22-.75,1.16-.81,2.65-.9,3.88-.24l1.75.94,3.8-7.08-1.75-.94c-1.23-.66-1.97-1.95-1.95-3.36.01-.47,0-.95-.05-1.43-.12-1.42.54-2.75,1.73-3.49l1.69-1.05-4.23-6.82-1.71,1.06c-1.18.73-2.66.72-3.88-.01-.2-.12-.41-.24-.62-.35-.21-.11-.42-.22-.64-.32-1.29-.61-2.12-1.85-2.16-3.24l-.06-1.99-8.02.25.06,1.98c.04,1.4-.7,2.69-1.95,3.37-.42.23-.83.48-1.22.76-1.17.81-2.65.9-3.88.24l-1.75-.94-3.8,7.08,1.75.94c1.23.66,1.97,1.95,1.95,3.37-.01.48,0,.96.04,1.44.12,1.42-.54,2.75-1.73,3.49l-1.69,1.04,4.23,6.82,1.69-1.05c.59-.36,1.25-.55,1.92-.55Zm8.91-1.08c-1.6,0-3.18-.39-4.62-1.17-2.31-1.24-4-3.3-4.76-5.81-.76-2.51-.49-5.16.74-7.47,1.24-2.31,3.3-4,5.81-4.75,2.51-.76,5.16-.49,7.47.75,2.31,1.24,3.99,3.3,4.75,5.81.76,2.51.49,5.16-.75,7.47-1.24,2.31-3.3,4-5.81,4.75-.94.28-1.89.42-2.84.42Zm.02-17.17c-.71,0-1.43.11-2.14.32-1.88.57-3.43,1.84-4.36,3.57h0c-.93,1.73-1.13,3.72-.56,5.6.57,1.88,1.84,3.43,3.57,4.36,1.73.93,3.72,1.13,5.6.56,1.88-.57,3.43-1.83,4.35-3.57.93-1.73,1.13-3.72.56-5.6-.57-1.88-1.83-3.43-3.56-4.36-1.08-.58-2.27-.88-3.47-.88Z"/>
        <path class="cls-4" d="m411.11,346.98c.32-.55.92-.85,1.55-.82.17,0,.34.01.52.01s.35,0,.52-.01c.63-.03,1.23.27,1.54.81l1.08,1.87,6.08-3.51-1.08-1.87c-.32-.55-.28-1.22.06-1.75.19-.29.37-.59.52-.9.29-.56.85-.92,1.48-.92h2.15v-7.02h-2.15c-.63,0-1.2-.36-1.48-.92-.16-.31-.33-.61-.52-.9-.35-.53-.38-1.2-.06-1.75l1.08-1.87-6.08-3.51-1.08,1.87c-.31.54-.91.84-1.54.81-.17,0-.34-.01-.52-.01s-.35,0-.52.01c-.63.03-1.23-.27-1.55-.82l-1.08-1.87-6.08,3.51,1.07,1.86c.32.55.29,1.22-.06,1.75-.19.29-.37.6-.52.91-.29.56-.85.92-1.48.92h-2.15v7.02h2.15c.63,0,1.2.36,1.48.92.16.31.33.62.52.91.34.53.38,1.2.06,1.75l-1.07,1.86,6.08,3.51,1.07-1.86Zm-3.69-10.59c0-3.17,2.58-5.75,5.75-5.75s5.74,2.58,5.74,5.75-2.57,5.74-5.74,5.74-5.75-2.57-5.75-5.74Z"/>
        <path class="cls-12" d="m439.91,336.87c-.37,11.08-16.05,14.15-25.18,14.26-5.32,0-10.68-.97-15.74-2.92-4.6-1.87-10.95-4.59-11.25-9.44-.15-2.8,1.97-4.81,3.81-5.67,5.47-2.54,11.06,2.15,16.61,1.09,1.86-.34,4.11-1.5,4.86-3.74.7-2.11-.32-4.27-1.51-5.59-6.56-6.26-15.57.46-23.28-.11-1.83-.09-4.5-.55-6.84-2.25-3.45-2.51-4.24-6.55-3.72-10.85.13-1.3.28-2.77.94-4.12,1.19-2.45,4.19-3.47,6.86-4.43,3.22-1.1,6.06-1.22,8.67-.38,2.6.85,4.82,2.43,7.06,4.11,4.5,3.4,8.98,6.59,14.14,8.26,6.84,2.38,16.9.98,19.2-5.76.56-2.08.39-4.64-.49-7.19-1.77-5.26-5.8-7.21-10.72-6.81-5.68.36-12.6.67-17.85-.84-5.82-1.32-7.91-6.44-5.6-11.43,2.42-5.07,8.56-6.14,13.09-5.51,5.08.7,9.81,3.48,12.95,7.61.42.56.31,1.35-.24,1.79-.52.39-1.22.3-1.61-.22-3.87-5.44-12.31-8.53-18.08-6.08-3.86,1.49-6.13,6.07-3.49,9.59,1.57,1.76,4.45,2.18,6.77,2.52,2.55.39,5.38.53,8.65.42,2.9-.09,5.75-.56,8.68-.2,5.14.59,8.58,4.28,9.98,9.17,2.75,9.2-2.65,14.97-11.72,16.34-8.26,1.26-17.29-3.48-24.22-9.01-4.94-3.91-9.11-6.39-15.28-3.74-4.98,1.67-5.27,3.22-5.4,8.37,0,2.7.83,4.76,2.47,6.12,3.69,3.07,8.67,2.16,13.87.87,4.69-1.16,11.13-2.75,15.82,1.02,1.93,1.56,3.2,3.73,3.48,5.97.65,5.46-4.69,9.16-10.02,8.68-3-.17-5.65-1.28-8.54-1.81-2.37-.63-6.94.3-6.9,3.74.42,3.2,4.71,4.96,7.18,6.18,10.94,5.12,25.96,5.48,36.39-1.3,9.58-7.31-1.37-18.87-10.15-19.21-1.55-.12-1.46-2.56.14-2.44,7.4.62,15.74,6.34,16.18,14.96Z"/>
        <path class="cls-13" d="m428.1,324.59c.33-.57.96-.89,1.61-.85.18,0,.36.01.54.01s.36,0,.54-.01c.66-.03,1.28.28,1.61.85l1.12,1.95,6.34-3.66-1.12-1.94c-.33-.57-.3-1.27.06-1.82.2-.3.38-.62.55-.94.3-.58.89-.96,1.55-.96h2.24v-7.32h-2.24c-.66,0-1.25-.38-1.55-.96-.17-.32-.35-.64-.55-.94-.36-.55-.39-1.25-.06-1.82l1.12-1.94-6.34-3.66-1.13,1.95c-.33.57-.95.88-1.61.85-.18,0-.36-.01-.54-.01s-.36,0-.54.01c-.66.03-1.29-.28-1.61-.85l-1.12-1.95-6.34,3.66,1.12,1.94c.33.57.3,1.27-.06,1.82-.2.31-.38.62-.55.95-.3.59-.89.96-1.55.96h-2.24v7.32h2.24c.66,0,1.25.38,1.55.96.17.33.35.64.55.95.36.55.39,1.25.06,1.82l-1.12,1.94,6.34,3.66,1.12-1.94Zm-3.84-11.04c0-3.31,2.69-6,6-6s5.99,2.69,5.99,6-2.68,5.99-5.99,5.99-6-2.68-6-5.99Z"/>
      </g>
    </g>
  </g>
  <g id="Muscle_aches" data-name="Muscle aches">
    <g>
      <path class="cls-13" d="m375.24,119.17l2.72,5.09c.14.26.03.59-.23.73-.27.14-.59.04-.73-.22l-1.94-3.63-.32,2.39c-.03.18-.13.32-.28.41h0s0,0,0,0c-.16.08-.34.09-.5.01l-2.16-1.07,1.94,3.63c.14.26.04.59-.23.73-.26.14-.59.04-.73-.22l-2.72-5.09c-.14-.26-.04-.59.22-.73t.03-.01c.14-.07.33-.09.49,0l2.99,1.47.45-3.3c.03-.18.13-.32.28-.41h0c.26-.13.6-.05.74.21Z"/>
      <path class="cls-13" d="m382.82,122.76c-1.46.58-3.09-.14-3.66-1.58l-1.28-3.23c-.11-.28.02-.59.3-.7.27-.11.6.02.71.3l1.28,3.23c.35.89,1.37,1.33,2.26.98.9-.36,1.33-1.37.98-2.26l-1.28-3.23c-.11-.28.03-.59.31-.7.28-.11.58.02.7.3l1.28,3.23c.57,1.44-.13,3.09-1.58,3.66Z"/>
      <path class="cls-13" d="m386.79,119.48c.11-.25.41-.37.67-.26.51.22,1.34.41,2,.21.47-.13.85-.39,1.08-.68.22-.29.28-.56.21-.79-.03-.12-.09-.2-.17-.28-.08-.08-.19-.15-.36-.2-.32-.1-.83-.13-1.41-.08h-.02c-.47.05-.91.05-1.32-.02-.4-.07-.78-.21-1.08-.48-.21-.19-.36-.43-.44-.71-.16-.56.02-1.14.36-1.59.35-.45.87-.79,1.48-.96.9-.26,1.69,0,2.26.17.26.09.41.37.32.63-.08.27-.36.42-.63.33-.57-.18-1.11-.33-1.68-.17-.42.12-.76.36-.96.62-.2.26-.25.5-.19.69.03.11.07.18.14.24.07.06.18.12.32.17.29.1.76.13,1.29.08h.02c.51-.05.98-.05,1.41.02.44.08.85.23,1.16.51.21.19.37.44.45.73.17.6-.02,1.21-.39,1.69-.37.47-.92.84-1.59,1.03-1.02.28-2.02.01-2.67-.26-.26-.11-.37-.41-.27-.66Z"/>
      <path class="cls-13" d="m392.68,115.97c-.33-1.91.98-3.74,2.91-4.1.85-.15,1.67-.01,2.36.35.27.15.37.48.24.75-.15.27-.5.38-.75.24-.49-.27-1.05-.36-1.64-.25-.66.12-1.23.5-1.61,1-.35.52-.52,1.15-.4,1.8.12.65.49,1.2,1,1.55.53.34,1.19.5,1.86.38.6-.11,1.08-.38,1.45-.81.19-.2.55-.23.79-.03.22.21.24.56.04.79-.52.58-1.24,1-2.09,1.15-1.92.35-3.8-.91-4.15-2.83Z"/>
      <path class="cls-13" d="m400.83,117.67l-.51-5.74c-.03-.29.19-.56.49-.58.3-.03.57.2.59.49l.46,5.2,2.64-.23c.28-.03.56.2.58.5.03.29-.21.56-.49.58l-3.15.28h-.03c-.3.03-.56-.19-.58-.49Z"/>
      <path class="cls-13" d="m406.24,117.26l-.05-5.76c0-.3.23-.54.53-.54h.01s0,0,.02,0l3.17-.03c.28,0,.54.23.54.53,0,.3-.25.55-.53.55l-2.65.03.02,1.79,2.28-.02c.29,0,.54.25.54.53,0,.3-.24.55-.53.55l-2.28.02.02,1.8,2.65-.03c.28,0,.54.24.54.54,0,.29-.25.54-.53.54l-3.16.03s-.02,0-.02,0h0c-.3.01-.54-.23-.54-.52Z"/>
      <path class="cls-13" d="m418.4,116.8l-2.36-.27-.62,1.21c-.11.2-.33.31-.54.28-.07,0-.13-.02-.18-.05-.27-.14-.37-.47-.24-.74l2.81-5.47c.11-.2.34-.32.55-.28.22.02.41.18.48.4l1.49,5.97c.06.29-.11.59-.4.66-.05.01-.12.02-.19,0-.21-.02-.4-.17-.46-.4l-.33-1.32Zm-.28-1.11l-.55-2.18-1.03,2,1.57.18Z"/>
      <path class="cls-13" d="m420.88,115.19c.4-1.89,2.31-3.1,4.23-2.71.84.18,1.55.61,2.05,1.21.19.24.16.58-.06.79-.24.2-.6.16-.79-.05-.35-.43-.84-.72-1.43-.85-.66-.14-1.33,0-1.87.33-.52.35-.91.87-1.05,1.52-.14.65,0,1.3.35,1.81.36.51.92.91,1.58,1.05.59.12,1.15.05,1.65-.21.25-.12.6,0,.74.27.12.27.01.61-.26.75-.7.34-1.52.46-2.37.29-1.91-.4-3.18-2.27-2.79-4.18Z"/>
      <path class="cls-13" d="m427.83,119.79l1.73-5.5c.09-.29.38-.44.67-.35.29.09.45.39.36.68l-.7,2.24,2.42.76.7-2.24c.09-.29.38-.44.67-.35.29.09.45.39.36.68l-1.73,5.5c-.09.29-.39.44-.68.35-.29-.09-.44-.38-.35-.67l.7-2.24-2.41-.76-.7,2.24c-.09.29-.39.44-.68.35-.29-.09-.44-.38-.35-.67Z"/>
      <path class="cls-13" d="m434.31,121.95l2.21-5.32c.12-.28.42-.41.7-.29h0s0,0,.02.01l2.92,1.21c.26.11.41.42.29.7-.12.28-.44.41-.71.3l-2.44-1.02-.69,1.65,2.1.87c.27.11.4.44.29.7-.12.28-.44.41-.71.3l-2.1-.87-.69,1.66,2.44,1.02c.26.11.4.43.29.71-.11.27-.44.4-.7.29l-2.92-1.21s-.01-.02-.01-.02h-.01c-.28-.11-.4-.43-.29-.7Z"/>
      <path class="cls-13" d="m439.9,123.06c.26-.11.56.01.67.27.22.51.69,1.22,1.31,1.53.43.23.89.3,1.25.24.36-.06.58-.22.7-.43.06-.11.07-.2.07-.32,0-.11-.04-.24-.13-.4-.17-.3-.52-.66-.98-1.02h-.02c-.37-.3-.7-.6-.95-.93-.25-.33-.42-.69-.46-1.1-.02-.28.03-.56.17-.82.27-.52.8-.82,1.35-.91.56-.08,1.18.02,1.74.32.83.43,1.24,1.16,1.53,1.67.13.24.05.55-.2.68-.24.14-.55.06-.68-.19-.29-.53-.58-1.01-1.11-1.28-.39-.2-.8-.26-1.13-.21-.32.05-.52.19-.61.38-.05.1-.07.18-.06.27,0,.09.05.21.12.35.15.27.46.61.89.94h.02c.4.32.75.65,1.01.99.27.36.46.75.5,1.17.02.28-.03.58-.17.85-.29.56-.85.87-1.44.96-.59.09-1.25-.02-1.86-.34-.93-.49-1.48-1.37-1.78-2.02-.11-.26.01-.56.26-.67Z"/>
    </g>
    <g>
      <path class="cls-11" d="m351.9,174.71c-.6.72-.2,1.81.69,2.01.07.02.13.05.2.06.94.13,1.64-.85,1.3-1.7-.36-.89-1.57-1.11-2.19-.36Z"/>
      <path class="cls-11" d="m394.83,106.38c-.6.72-.2,1.81.69,2.01.07.02.13.05.2.06.94.13,1.64-.85,1.3-1.7-.36-.89-1.57-1.11-2.19-.36Z"/>
      <path class="cls-11" d="m335.2,109.83c-.6.72-.2,1.81.69,2.01.07.02.13.05.2.06.94.13,1.64-.85,1.3-1.7-.36-.89-1.57-1.11-2.19-.36Z"/>
      <path class="cls-11" d="m351.65,170.06c.21.26.52.38.83.29.62-.06,1.11-.96.49-1.52-.8-.73-2.02.36-1.32,1.22Z"/>
      <path class="cls-11" d="m347.98,175.86c-.15.78,1.06,1.01,1.21.23.15-.78-1.06-1.01-1.21-.23Z"/>
      <path class="cls-11" d="m406.17,152.69c-.15.78,1.06,1.01,1.21.23.15-.78-1.06-1.01-1.21-.23Z"/>
      <path class="cls-11" d="m330.33,106.1c-.15.78,1.06,1.01,1.21.23.15-.78-1.06-1.01-1.21-.23Z"/>
      <path class="cls-11" d="m393.95,115.07c-.15.78,1.06,1.01,1.21.23.15-.78-1.06-1.01-1.21-.23Z"/>
    </g>
    <g>
      <circle class="cls-1" cx="408.56" cy="169.96" r="43.19" transform="translate(16.96 376) rotate(-50.34)"/>
      <path class="cls-13" d="m445.07,146.42c-9.13-14.56-27.34-22.52-44.31-19.36-14.4,2.54-26.5,12.08-32.38,25.51-5.89,13.46-4.68,28.85,3.24,41.19,7.96,12.31,21.48,19.77,36.17,19.96.2,0,.39,0,.59,0,14.44,0,27.87-7.06,36.02-18.96,9.88-14.14,10.16-34.02.67-48.35Zm-37.16,66.02c-14.3-.28-27.39-7.57-35.03-19.5-7.71-11.88-8.94-26.81-3.29-39.95,5.66-13.16,17.36-22.56,31.32-25.14,2.58-.51,5.18-.76,7.79-.76,14.2,0,28.24,7.42,35.95,19.59h0c9.35,14.26,8.97,33.84-.92,47.62-8.11,11.64-21.5,18.43-35.82,18.14Z"/>
      <g>
        <g>
          <path class="cls-13" d="m400.49,173.71c-10.6-10.32-21.07-1.01-21.51-.61l-2.21-2.41c4.5-4.14,15.73-9.32,25.99.68l-2.28,2.34Z"/>
          <path class="cls-13" d="m419.39,179.06c-1.78-4.79-4.82-7.12-9.29-7.12-5.54,0-8.59,2.11-10.19,7.06l-3.11-1.01c2.04-6.27,6.39-9.32,13.3-9.32,4.07,0,9.51,1.61,12.35,9.25l-3.06,1.14Z"/>
          <path class="cls-13" d="m385.29,200.87c-3.5,0-6.07-.67-6.29-.72l.84-3.15c.1.03,9.72,2.48,16.37-2.77l1.09-.86,1.02.93h0s3.1,2.36,13.62,1.79c9.67-.53,18.2-7.26,20.59-9.31.14-.12.23-.19.26-.21.29-.21.67-.38,2.95-1.29.49-.2.97-.39,1.34-.54.03-.85-.21-2.72-.68-4.18-.18-.56-.77-2.73-1.88-6.84-1.98-7.33-6.04-22.37-7.02-24.61-1.88-1.3-13.5-6.64-15.64-6.78-1.02.43-3.72,4.2-4.42,5.74.91,1.39,4.2,4.9,5.57,5.94.46-.39,1.19-1.24,1.73-2.04l1.32-1.96,1.36,1.93c.37.52.91,1.12,1.19,1.32.78.05,1.88.05,1.89.05h3.41s-2.14,2.66-2.14,2.66c0,0-1.39,1.83-1.56,5.22-.21,4.03-.66,12.38-.66,12.38l-3.26-.18s.45-8.35.66-12.38c.1-1.88.5-3.4.93-4.55-.61-.13-1.19-.51-1.72-.99-1.25,1.43-2.43,2.09-3.49,1.95-1.93-.24-8.62-7.41-8.62-9.24,0-1.55,4.34-8.56,7.26-9.08.56-.1,1.87-.33,9.9,3.25,1.28.57,7.69,3.46,8.73,4.58.68.73,1.66,3.52,7.71,25.95.89,3.31,1.67,6.18,1.83,6.69.22.68,2.08,6.71-.51,7.91-.36.17-1.14.48-2.04.84-.77.31-1.91.77-2.29.94h0c-3.31,2.85-12.13,9.53-22.54,10.1-8.67.47-12.96-.93-14.82-1.87-3.95,2.71-8.46,3.4-12.01,3.4Zm22.01-52.47h0Z"/>
        </g>
        <path class="cls-12" d="m394.11,148.92c1.93,4.99,3.36,10.15,4.65,15.33l-2.11-.43c1.49-2.19,3.25-4.52,4.83-6.67,1.16,5.41,2.23,10.92,2.44,16.46-1.84-4.29-3.13-8.79-4.25-13.31,0,0,2.16.44,2.16.44-1.51,2.15-3.24,4.45-4.86,6.54-1.27-6.05-2.41-12.18-2.86-18.36h0Z"/>
        <path class="cls-12" d="m411.64,157.96c-.62,3.29-1.74,6.46-3,9.56l-1.34-1.64c1.67-.47,3.85-.88,5.56-1.25-1.1,2.21-2.29,4.61-3.6,6.69-.92,1.45-1.86,2.89-3,4.23.69-3.41,1.91-6.6,3.31-9.75l1.36,1.7c-1.65.43-3.75.8-5.45,1.1,1.77-3.68,3.64-7.4,6.16-10.64h0Z"/>
      </g>
    </g>
  </g>
  <g id="Difficulty_sleeping" data-name="Difficulty sleeping">
    <g>
      <path class="cls-13" d="m219.48,44.31l-3.71-4.41c-.2-.23-.17-.56.07-.76l.88-.74c1.44-1.21,3.6-1.02,4.8.42,1.22,1.45,1.04,3.6-.4,4.82l-.88.74c-.23.19-.57.16-.76-.07Zm.48-1.12l.46-.39c.98-.84,1.11-2.3.27-3.29-.82-.98-2.29-1.11-3.27-.28l-.46.39,3,3.57Z"/>
      <path class="cls-13" d="m221.12,35.55c-.18-.24-.13-.57.11-.75.24-.17.58-.14.76.11l3.43,4.64c.18.24.12.58-.12.76-.24.18-.57.13-.75-.11l-3.43-4.64Z"/>
      <path class="cls-13" d="m226.87,38.54l-3.2-4.8c-.16-.24-.1-.58.15-.75h0s0,0,.02-.02l2.63-1.76c.24-.16.58-.1.75.15.17.25.09.6-.14.75l-2.2,1.47.99,1.49,1.89-1.26c.24-.16.59-.09.75.15.17.25.1.59-.14.75l-1.89,1.26,1.3,1.95c.16.24.1.58-.16.75-.25.17-.58.1-.75-.15Z"/>
      <path class="cls-13" d="m231.77,35.42l-2.74-5.07c-.14-.26-.05-.58.22-.73h0s0,0,.02-.01l2.78-1.5c.25-.13.59-.04.73.22.14.27.04.6-.21.74l-2.33,1.26.85,1.57,2-1.08c.26-.14.59-.03.73.22.14.27.05.6-.21.74l-2,1.08,1.11,2.06c.14.26.04.59-.23.73-.27.14-.59.04-.73-.22Z"/>
      <path class="cls-13" d="m234.61,27.47c-.13-.28-.01-.59.26-.71.27-.12.6-.02.72.26l2.42,5.24c.13.28,0,.59-.27.72-.28.13-.59.01-.71-.26l-2.42-5.24Z"/>
      <path class="cls-13" d="m238.27,28.82c-.67-1.82.29-3.86,2.12-4.56.81-.3,1.64-.31,2.38-.08.29.1.45.41.37.7-.1.3-.42.46-.69.38-.53-.18-1.1-.16-1.66.05-.63.24-1.12.71-1.4,1.28-.25.58-.3,1.22-.07,1.84.23.62.7,1.09,1.27,1.34.58.24,1.26.28,1.9.04.57-.21,1-.57,1.28-1.06.15-.23.5-.33.77-.17.25.17.34.51.18.77-.41.67-1.04,1.21-1.85,1.51-1.83.69-3.91-.21-4.6-2.03Z"/>
      <path class="cls-13" d="m249.45,28.79c-1.52.39-3.05-.53-3.44-2.03l-.87-3.37c-.08-.29.09-.58.39-.66.28-.07.59.09.67.38l.87,3.37c.24.93,1.19,1.49,2.12,1.25.94-.24,1.49-1.19,1.25-2.12l-.87-3.37c-.08-.29.1-.58.4-.66.29-.08.58.09.66.39l.87,3.37c.39,1.51-.52,3.05-2.03,3.44Z"/>
      <path class="cls-13" d="m253.77,27.25l-.95-5.69c-.05-.29.14-.57.44-.62.3-.05.58.15.63.44l.86,5.15,2.61-.43c.28-.05.57.15.62.45.05.29-.16.57-.44.62l-3.12.52h-.03c-.3.05-.57-.15-.62-.44Z"/>
      <path class="cls-13" d="m261.81,20.95l-1.55.15.5,5.2c.03.3-.18.56-.48.59-.29.03-.56-.18-.59-.48l-.5-5.2-1.54.15c-.3.03-.56-.2-.59-.49-.03-.3.18-.56.48-.59l4.16-.4c.29-.03.56.18.59.48.03.29-.19.57-.48.6Z"/>
      <path class="cls-13" d="m269.07,20.62l-1.98,2.76.02,2.64c0,.3-.23.54-.53.54-.28,0-.54-.23-.54-.53l-.03-2.64-2.01-2.73c-.19-.23-.14-.56.1-.74.24-.18.58-.13.74.11l1.69,2.27,1.65-2.3c.18-.25.51-.3.75-.12.24.17.29.51.12.74Z"/>
      <path class="cls-13" d="m272.96,25.06c.2-.19.52-.18.72.02.39.4,1.08.89,1.77.96.49.06.94-.04,1.26-.22.32-.18.47-.41.5-.65.01-.13,0-.22-.05-.32-.05-.1-.12-.21-.26-.33-.26-.22-.72-.44-1.28-.61h-.02c-.45-.14-.86-.31-1.21-.53-.35-.22-.64-.5-.81-.86-.12-.25-.16-.53-.13-.82.07-.58.46-1.05.94-1.33.5-.28,1.11-.39,1.74-.32.93.11,1.57.65,2.03,1.03.21.18.24.5.05.71-.17.22-.49.25-.71.06-.46-.39-.9-.74-1.49-.8-.44-.05-.84.04-1.13.2-.29.16-.42.36-.44.57-.01.12,0,.2.04.28.04.08.12.18.23.28.23.2.65.41,1.16.57h.02c.48.16.93.34,1.29.57.38.24.7.53.88.92.12.25.17.55.14.85-.07.62-.49,1.12-1.01,1.41-.52.29-1.17.42-1.86.34-1.05-.13-1.87-.76-2.37-1.26-.19-.2-.18-.52,0-.72Z"/>
      <path class="cls-13" d="m279.4,27.09l1.14-5.65c.06-.29.34-.48.63-.42.3.06.49.35.43.64l-1.04,5.12,2.6.53c.28.06.48.35.42.64-.06.29-.36.48-.63.42l-3.1-.63h-.03c-.3-.07-.48-.35-.42-.64Z"/>
      <path class="cls-13" d="m284.72,28.23l1.57-5.54c.08-.29.37-.45.66-.37h0s0,0,.02,0l3.04.86c.27.08.45.37.37.66-.08.29-.39.46-.67.38l-2.55-.72-.49,1.72,2.19.62c.28.08.45.39.37.66-.08.29-.38.46-.67.38l-2.19-.62-.49,1.73,2.55.72c.27.08.45.38.37.67-.08.28-.39.45-.66.37l-3.05-.86s-.02-.01-.02-.01h-.01c-.29-.08-.45-.37-.37-.66Z"/>
      <path class="cls-13" d="m290.18,29.86l2.01-5.4c.11-.28.41-.42.69-.32h0s0,0,.02.01l2.97,1.11c.26.1.42.41.32.69-.11.28-.43.42-.7.33l-2.48-.92-.62,1.68,2.13.79c.27.1.41.43.32.69-.1.28-.42.43-.69.33l-2.13-.8-.63,1.68,2.48.92c.26.1.42.42.31.7-.1.27-.42.41-.69.32l-2.97-1.11s-.02-.02-.02-.02h-.01c-.28-.1-.42-.41-.32-.69Z"/>
      <path class="cls-13" d="m298.47,30.98l-1.09-.51-.9,1.92c-.12.27-.45.38-.72.26-.27-.12-.38-.45-.26-.71l2.44-5.23c.13-.27.45-.38.71-.26h0s1.58.74,1.58.74c1.05.49,1.51,1.74,1.01,2.79-.48,1.04-1.73,1.49-2.79,1Zm-.63-1.49l1.09.51c.51.24,1.1.02,1.34-.47.23-.52.02-1.11-.49-1.35l-1.09-.51-.85,1.82Z"/>
      <path class="cls-13" d="m303.35,29.35c.14-.27.46-.36.73-.22.26.14.37.47.23.73l-2.75,5.07c-.14.27-.48.35-.74.21-.27-.14-.36-.46-.22-.73l2.75-5.07Z"/>
      <path class="cls-13" d="m304.01,36.35c-.16.25-.5.32-.73.17-.26-.16-.32-.5-.16-.74l3.07-4.78h0c.08-.15.24-.26.42-.27.3,0,.55.21.56.5l.3,5.38,2.17-3.39c.15-.24.48-.32.73-.16.25.16.32.5.17.73l-3.07,4.78c-.16.25-.5.32-.74.16-.13-.08-.21-.23-.23-.38,0-.03-.01-.05,0-.08l-.29-5.34-2.19,3.41Z"/>
      <path class="cls-13" d="m310.53,37.04c1.22-1.54,3.47-1.76,5.02-.52.65.52,1.1,1.23,1.27,1.98.08.3-.11.61-.41.69-.29.07-.6-.12-.68-.42-.13-.51-.42-1.01-.88-1.37-.55-.44-1.2-.61-1.82-.54-.63.06-1.22.36-1.63.88-.4.51-.56,1.14-.47,1.77.07.63.38,1.22.94,1.65.38.3.84.47,1.28.54l.83-1.05-1.1-.87c-.24-.19-.28-.55-.09-.78.19-.25.54-.27.78-.08l1.51,1.2h.02c.24.21.3.55.1.79l-1.34,1.69c-.04.05-.08.07-.13.11-.02,0-.02.02-.05.03h0c-.08.06-.17.08-.29.08-.78,0-1.56-.27-2.21-.78-1.56-1.23-1.86-3.46-.65-4.99Z"/>
    </g>
    <g>
      <path class="cls-11" d="m287.53,102.8c.82.45,1.81-.15,1.84-1.05.01-.07.02-.14.02-.21-.05-.94-1.14-1.45-1.92-.95-.81.52-.8,1.75.06,2.22Z"/>
      <path class="cls-11" d="m212.31,67.51c.82.45,1.81-.15,1.84-1.05.01-.07.02-.14.02-.21-.05-.94-1.14-1.45-1.92-.95-.81.52-.8,1.75.06,2.22Z"/>
      <path class="cls-11" d="m226.98,119.24c.82.45,1.81-.15,1.84-1.05.01-.07.02-.14.02-.21-.05-.94-1.14-1.45-1.92-.95-.81.52-.8,1.75.06,2.22Z"/>
      <path class="cls-11" d="m283.01,103.92c.22-.26.27-.58.13-.87-.17-.6-1.15-.91-1.58-.2-.56.93.74,1.91,1.45,1.06Z"/>
      <path class="cls-11" d="m289.4,106.43c.79,0,.79-1.23,0-1.23s-.79,1.23,0,1.23Z"/>
      <path class="cls-11" d="m286.87,60.22c.79,0,.79-1.23,0-1.23s-.79,1.23,0,1.23Z"/>
      <path class="cls-11" d="m224.24,124.73c.79,0,.79-1.23,0-1.23s-.79,1.23,0,1.23Z"/>
      <path class="cls-11" d="m208.27,77.99c.79,0,.79-1.23,0-1.23s-.79,1.23,0,1.23Z"/>
    </g>
    <g>
      <circle class="cls-1" cx="266.74" cy="79.49" r="43.19" transform="translate(8.4 183.06) rotate(-38.44)"/>
      <path class="cls-13" d="m303.25,55.95c-9.13-14.56-27.34-22.52-44.31-19.36-14.4,2.54-26.5,12.08-32.38,25.51-5.89,13.46-4.68,28.85,3.24,41.19,7.96,12.31,21.48,19.77,36.17,19.96.2,0,.39,0,.59,0,14.44,0,27.87-7.06,36.02-18.96,9.88-14.14,10.16-34.02.67-48.35Zm-37.16,66.02c-14.3-.28-27.39-7.57-35.03-19.5-7.71-11.88-8.94-26.81-3.29-39.95,5.66-13.16,17.36-22.56,31.32-25.14,2.58-.51,5.18-.76,7.79-.76,14.2,0,28.24,7.42,35.96,19.59h0c9.35,14.26,8.97,33.84-.92,47.62-8.11,11.64-21.52,18.43-35.82,18.14Z"/>
      <g>
        <path class="cls-13" d="m252.17,77.17l-8.49,11.56h7.43c.71,0,1.29.58,1.29,1.29s-.58,1.27-1.29,1.27h-9.94c-.07,0-.14,0-.23-.02-.02,0-.05,0-.07-.02-.05,0-.09-.02-.16-.02-.02-.02-.05-.02-.07-.07-.02,0-.07-.02-.12-.05-.05-.02-.07-.02-.09-.05v-.02s-.05-.02-.07-.05c-.02-.02-.07-.07-.09-.12-.05-.02-.07-.05-.09-.07-.02-.02-.05-.07-.07-.09-.02-.07-.05-.09-.05-.12-.02-.05-.07-.07-.07-.12-.02-.05-.02-.09-.05-.14,0-.02-.02-.05-.02-.09,0-.07-.02-.12-.02-.16v-.09c0-.07,0-.12.02-.16v-.12s.02-.07.05-.11c0-.02.02-.07.02-.12.05-.02.07-.07.07-.09.02-.02.05-.07.07-.12h.02l8.47-11.58h-7.45c-.71,0-1.27-.6-1.27-1.29s.55-1.27,1.27-1.27h10.13s.07.02.09.02c.07,0,.09.02.14.02.02.02.07.02.09.05.07,0,.09.05.12.07.05.02.07.05.12.07h.02s.05.05.07.07c.05.02.07.07.09.09.02.02.05.07.07.09.05.02.07.05.09.09.02.05.05.09.07.12,0,.02.02.07.05.09,0,.07.02.12.02.14.05.05.05.07.05.12.02.07.02.09.02.14v.25s-.02.07-.02.09c0,.07-.05.09-.05.14-.02.05-.02.07-.05.14-.02.02-.02.05-.05.07-.02.05-.05.09-.07.12v.05Z"/>
        <path class="cls-13" d="m274.41,63.29l-13.6,13.88,9.96,1.42c.96.14,1.62,1.02,1.49,1.98-.14.96-1.02,1.59-1.98,1.45l-13.34-1.91c-.09-.01-.19-.03-.3-.07-.03,0-.06,0-.09-.05-.06,0-.12-.05-.21-.06-.03-.04-.06-.04-.08-.11-.03,0-.09-.05-.15-.08-.06-.04-.09-.04-.12-.08v-.03s-.05-.04-.08-.08c-.03-.03-.08-.11-.1-.17-.06-.04-.08-.08-.11-.11-.03-.03-.05-.1-.07-.14-.02-.1-.04-.13-.04-.16-.02-.07-.08-.11-.07-.17-.02-.07-.01-.13-.04-.19,0-.03-.02-.07-.01-.13.01-.09,0-.16,0-.22,0-.03,0-.06.01-.09v-.03c.02-.09.03-.16.07-.21,0-.03,0-.06.02-.15.03-.03.04-.09.08-.14,0-.03.04-.09.05-.15.07-.02.11-.08.11-.11.04-.03.08-.08.11-.14h.03s13.57-13.91,13.57-13.91l-9.99-1.43c-.96-.14-1.59-1.05-1.45-1.98.14-.96.99-1.59,1.94-1.46l13.34,1.91h.03c.09.02.15.03.22.04.03,0,.09.04.12.05.09.01.12.05.18.06.03.04.09.05.11.08.09.01.12.08.14.11.06.04.08.08.14.11h.03c.06.05.05.08.08.11.06.04.08.11.11.14.03.03.05.1.07.14.06.04.08.08.1.14.02.07.04.13.07.17,0,.03.02.1.04.13-.01.09,0,.16,0,.19.05.07.05.1.04.16.02.1.01.13,0,.19,0,.03,0,.06-.02.12-.01.09-.02.15-.03.22-.04.06-.04.09-.05.12-.01.09-.08.12-.09.18-.04.06-.05.09-.09.18-.03.03-.04.06-.08.08-.04.06-.08.11-.11.14v.06Z"/>
        <path class="cls-13" d="m293.03,78.7l-15.83,16.15,11.6,1.66c1.12.16,1.89,1.19,1.73,2.31-.16,1.12-1.18,1.85-2.3,1.69l-15.53-2.22c-.11-.02-.22-.03-.35-.09-.04,0-.07-.01-.1-.05-.07-.01-.14-.06-.25-.07-.03-.04-.07-.05-.09-.12-.04,0-.1-.05-.17-.1-.07-.05-.1-.05-.13-.09v-.04s-.06-.05-.09-.09c-.03-.04-.09-.12-.12-.2-.07-.05-.1-.09-.13-.13-.03-.04-.06-.12-.09-.16-.02-.11-.05-.16-.05-.19-.02-.08-.09-.12-.08-.2-.02-.08-.01-.15-.04-.23,0-.04-.02-.08-.01-.15.02-.11,0-.19,0-.26,0-.04.01-.07.02-.11v-.04c.02-.11.03-.18.08-.25,0-.04.01-.07.03-.18.04-.03.05-.1.1-.17,0-.04.05-.1.06-.18.08-.03.12-.09.13-.13.04-.03.09-.1.13-.16h.04s15.8-16.19,15.8-16.19l-11.63-1.66c-1.12-.16-1.85-1.22-1.69-2.3.16-1.12,1.15-1.86,2.26-1.7l15.53,2.22h.04c.11.02.18.03.25.04.04,0,.1.05.14.06.11.02.14.06.21.07.03.04.1.05.13.09.11.02.13.09.16.13.07.05.1.09.16.13h.04c.07.05.06.09.09.13.07.05.09.13.12.17.03.04.06.12.09.16.07.05.1.09.12.17.03.08.05.15.08.2,0,.04.02.11.05.15-.02.11.01.19,0,.22.06.08.06.12.05.19.02.11.01.15,0,.22,0,.04,0,.07-.02.14-.02.11-.03.18-.04.25-.05.07-.05.1-.06.14-.02.11-.09.13-.1.21-.05.07-.05.1-.1.21-.04.03-.05.07-.09.1-.05.07-.09.13-.13.16v.07Z"/>
      </g>
      <g>
        <path class="cls-12" d="m266.81,115.72c-2.57,0-5.15-.27-7.72-.83-9.46-2.04-17.55-7.65-22.79-15.78-5.24-8.13-7-17.82-4.96-27.27,2.04-9.46,7.65-17.55,15.78-22.79,8.13-5.24,17.82-7,27.27-4.96,9.46,2.04,17.55,7.65,22.79,15.78,5.24,8.13,7,17.82,4.96,27.27s-7.65,17.55-15.78,22.79c-5.92,3.82-12.67,5.79-19.55,5.79Zm-.13-65.46c-5.55,0-10.99,1.59-15.77,4.67-6.56,4.23-11.08,10.76-12.73,18.39-1.65,7.63-.23,15.44,4,22,4.23,6.56,10.76,11.08,18.39,12.73,7.62,1.65,15.44.23,22-4,6.56-4.23,11.08-10.76,12.73-18.39,1.65-7.63.23-15.44-4-22h0c-4.23-6.56-10.76-11.08-18.39-12.73-2.07-.45-4.16-.67-6.23-.67Z"/>
        <rect class="cls-12" x="234.06" y="75.99" width="65.35" height="7" transform="translate(21.92 211.9) rotate(-45)"/>
      </g>
    </g>
  </g>
  <g id="Irritability">
    <g>
      <path class="cls-13" d="m99.61,73.47c-.12-.28,0-.59.28-.71.27-.12.6,0,.71.28l2.27,5.3c.12.28-.02.59-.29.71-.28.12-.59,0-.71-.28l-2.27-5.3Z"/>
      <path class="cls-13" d="m108.67,75.9c.19.23.14.57-.09.76-.03.02-.1.07-.19.1h0c-.09.04-.24.07-.4.03-.15-.03-.29-.11-.41-.22-.22-.22-.41-.53-.58-1.04-.07-.17-.15-.28-.25-.36-.09-.08-.23-.13-.37-.17-.24-.06-.5-.05-.59-.04l-1.09.39.71,2c.1.28-.05.59-.34.69-.29.1-.59-.05-.69-.33l-1.93-5.43c-.1-.29.04-.59.33-.69h0s1.64-.58,1.64-.58c1.1-.39,2.28.19,2.67,1.28.22.61.13,1.24-.18,1.76.15.05.3.12.44.23.28.2.52.5.66.89.09.28.18.45.23.53.16,0,.32.06.43.2Zm-2.6-3.25c-.19-.53-.76-.81-1.29-.62l-1.13.4.67,1.9,1.13-.4c.53-.19.8-.76.62-1.28Z"/>
      <path class="cls-13" d="m114.48,74.34c.17.25.09.58-.16.75-.04.02-.11.06-.2.08h0c-.09.03-.24.04-.4,0-.14-.04-.28-.14-.39-.25-.2-.24-.36-.56-.49-1.08-.06-.18-.13-.29-.22-.38-.08-.09-.22-.15-.35-.2-.23-.08-.5-.09-.59-.09l-1.12.29.53,2.05c.07.28-.1.58-.39.66-.29.08-.58-.1-.66-.38l-1.45-5.58c-.08-.29.09-.58.38-.66h0s1.68-.44,1.68-.44c1.12-.29,2.26.38,2.55,1.51.16.62.02,1.25-.33,1.74.15.06.29.15.42.26.26.22.47.54.58.94.06.29.14.46.18.55.16,0,.32.09.41.24Zm-2.31-3.46c-.14-.55-.69-.87-1.23-.73l-1.16.3.51,1.95,1.16-.3c.54-.14.86-.69.72-1.22Z"/>
      <path class="cls-13" d="m115.05,68.65c-.06-.3.13-.57.43-.63.29-.06.58.13.64.42l1.09,5.66c.06.3-.15.58-.44.63-.3.06-.57-.13-.63-.43l-1.09-5.67Z"/>
      <path class="cls-13" d="m122.39,68.09l-1.54.2.66,5.18c.04.3-.17.56-.47.6-.29.04-.56-.16-.6-.47l-.66-5.18-1.53.19c-.3.04-.56-.18-.6-.47-.04-.3.17-.56.47-.6l4.14-.52c.29-.04.56.16.6.47.04.29-.17.57-.46.61Z"/>
      <path class="cls-13" d="m127.62,71.9l-2.37.12-.41,1.29c-.08.22-.28.36-.49.37-.07,0-.13,0-.19-.02-.29-.09-.44-.4-.36-.69l1.86-5.87c.08-.22.28-.37.5-.37.22-.02.44.1.54.31l2.46,5.64c.11.28,0,.6-.29.72-.05.02-.12.04-.18.04-.21.01-.43-.11-.52-.32l-.54-1.25Zm-.46-1.05l-.9-2.06-.68,2.14,1.58-.08Z"/>
      <path class="cls-13" d="m130.4,72.93l.19-5.76c0-.3.26-.53.55-.52t.03,0h0l1.35.04c1.03.03,1.83.89,1.8,1.92-.01.42-.16.8-.41,1.1.57.39.95,1.06.93,1.8-.04,1.16-1.01,2.07-2.16,2.03l-1.73-.06s0-.01,0-.01c-.02,0-.02,0-.03,0-.29,0-.53-.26-.52-.55Zm1.1-.51l1.22.04c.56,0,1.02-.42,1.04-.98.02-.56-.42-1.01-.97-1.04l-1.22-.04-.07,2.02Zm.1-3.11l.84.03c.43.01.78-.34.8-.77.01-.43-.32-.78-.75-.8l-.84-.03-.05,1.56Z"/>
      <path class="cls-13" d="m136.61,67.48c.03-.3.28-.51.58-.49.29.03.52.28.5.59l-.53,5.74c-.03.3-.3.51-.59.49-.3-.03-.51-.28-.49-.58l.53-5.74Z"/>
      <path class="cls-13" d="m138.95,73.51l.87-5.7c.04-.29.31-.5.61-.45.3.05.5.32.46.61l-.79,5.16,2.62.4c.28.04.49.32.45.62-.04.29-.33.49-.61.45l-3.13-.48h-.03c-.3-.05-.49-.33-.45-.62Z"/>
      <path class="cls-13" d="m145.6,68.79c.06-.3.34-.48.64-.41.29.06.49.34.42.64l-1.2,5.64c-.06.3-.36.47-.65.41-.3-.06-.48-.34-.41-.64l1.2-5.64Z"/>
      <path class="cls-13" d="m152.61,71.14l-1.5-.42-1.41,5.03c-.08.29-.37.45-.66.37-.28-.08-.45-.37-.37-.66l1.41-5.03-1.49-.42c-.29-.08-.45-.39-.37-.67.08-.29.37-.45.66-.37l4.02,1.13c.28.08.45.37.37.66-.08.28-.38.46-.67.38Z"/>
      <path class="cls-13" d="m159.49,73.44l-2.84,1.87-.93,2.47c-.11.28-.41.42-.69.31-.27-.1-.42-.41-.31-.69l.93-2.47-.89-3.27c-.09-.28.07-.58.36-.66.29-.08.58.08.66.37l.76,2.73,2.37-1.56c.26-.16.59-.09.75.15.16.25.09.58-.15.74Z"/>
    </g>
    <g>
      <path class="cls-11" d="m164.63,100.72c.9.25,1.73-.56,1.55-1.45,0-.07-.01-.14-.03-.21-.27-.91-1.45-1.15-2.09-.48-.66.69-.37,1.88.57,2.14Z"/>
      <path class="cls-11" d="m96.08,115.29c-.82-.45-1.81.15-1.84,1.05-.01.07-.02.14-.02.21.05.94,1.14,1.45,1.92.95.81-.52.8-1.75-.06-2.22Z"/>
      <path class="cls-11" d="m114.42,160.44c-.82-.45-1.81.15-1.84,1.05-.01.07-.02.14-.02.21.05.94,1.14,1.45,1.92.95.81-.52.8-1.75-.06-2.22Z"/>
      <path class="cls-11" d="m160.5,102.86c.15-.3.13-.63-.07-.88-.31-.54-1.33-.61-1.59.18-.33,1.03,1.16,1.69,1.66.7Z"/>
      <path class="cls-11" d="m167.29,103.82c.77-.18.49-1.38-.28-1.2-.77.18-.49,1.38.28,1.2Z"/>
      <path class="cls-11" d="m99.52,110.11c-.79,0-.79,1.23,0,1.23s.79-1.23,0-1.23Z"/>
      <path class="cls-11" d="m123.99,158c-.79,0-.79,1.23,0,1.23s.79-1.23,0-1.23Z"/>
      <path class="cls-11" d="m183.08,143.04c-.79,0-.79,1.23,0,1.23s.79-1.23,0-1.23Z"/>
    </g>
    <g>
      <circle class="cls-1" cx="129.19" cy="123.23" r="43.19" transform="translate(-49.29 127.45) rotate(-45)"/>
      <path class="cls-13" d="m165.71,99.69c-9.13-14.56-27.35-22.51-44.31-19.36-14.4,2.54-26.5,12.08-32.38,25.51-5.89,13.46-4.68,28.85,3.24,41.19,7.96,12.31,21.48,19.77,36.17,19.96.2,0,.39,0,.59,0,14.44,0,27.87-7.06,36.02-18.96,9.88-14.14,10.16-34.02.67-48.35Zm-1.34,47.89c-8.11,11.64-21.49,18.42-35.82,18.14-14.3-.28-27.39-7.57-35.03-19.49-7.71-11.88-8.94-26.81-3.29-39.95,5.66-13.16,17.36-22.56,31.32-25.14,2.58-.51,5.18-.76,7.79-.76,14.2,0,28.24,7.42,35.95,19.59h0s0,0,0,0c9.35,14.26,8.97,33.84-.92,47.61Z"/>
      <g>
        <polygon class="cls-12" points="124.33 97.76 142.93 97.76 129.92 120.63 141.39 120.63 119.6 148.7 129.04 127.58 115.46 127.58 124.33 97.76"/>
        <g>
          <g>
            <path class="cls-1" d="m154.75,119.66c-1.67-3.15-1.65-7.18.81-10.53,1.95-2.66,5.27-4.21,8.56-3.94,4.36.35,7.56,3.19,8.71,6.81,1.98-.18,4.06.23,6.03,1.27,4.08,2.15,6.47,6.87,5.74,11.43-.95,5.98-6.08,9.74-11.54,9.47l-.14.41c-2.06,5.93-9.2,8.65-14.8,5-2.78-1.81-4.49-5.09-4.4-8.41.04-1.49.38-2.84.95-4.04"/>
            <path class="cls-13" d="m154.75,119.66c-6.69-13.33,13.63-21.73,18.75-7.88,0,0-.74-.49-.74-.49,10.91-1.03,17.1,12.88,9.08,20.33-2.34,2.23-5.61,3.42-8.82,3.25l.7-.47c-4.82,13.76-25.09,6.23-19.07-7.27-5.03,12.7,14.02,19.59,17.89,6.31,5.99.66,11.54-4.48,11.37-10.48.09-5.96-5.65-11.11-11.59-10.21-4.19-13.35-23.2-5.72-17.57,6.91h0Z"/>
          </g>
          <path class="cls-13" d="m151.65,128.84c-6.1-.23-12.14-.99-18.1-2.31,6.1.22,12.14,1,18.1,2.31h0Z"/>
          <path class="cls-13" d="m150.47,118.84c-5.51,1.12-11.09,1.7-16.72,1.73,5.51-1.12,11.09-1.7,16.72-1.73h0Z"/>
          <path class="cls-13" d="m154.83,123.84c-6.15.53-12.3.52-18.45-.05,6.15-.53,12.3-.51,18.45.05h0Z"/>
        </g>
        <g>
          <g>
            <path class="cls-1" d="m103.64,126.7c1.67,3.15,1.65,7.18-.81,10.53-1.95,2.66-5.27,4.21-8.56,3.94-4.36-.35-7.56-3.19-8.71-6.81-1.98.18-4.06-.23-6.03-1.27-4.08-2.15-6.47-6.87-5.74-11.43.95-5.98,6.08-9.74,11.54-9.47l.14-.41c2.06-5.93,9.2-8.65,14.8-5,2.78,1.81,4.49,5.09,4.4,8.41-.04,1.49-.38,2.84-.95,4.04"/>
            <path class="cls-13" d="m103.64,126.7c6.69,13.33-13.63,21.73-18.75,7.88,0,0,.74.49.74.49-10.91,1.03-17.1-12.88-9.08-20.33,2.34-2.23,5.61-3.42,8.82-3.25l-.7.47c4.82-13.76,25.09-6.23,19.07,7.27,5.03-12.7-14.02-19.59-17.89-6.31-5.99-.66-11.54,4.48-11.37,10.48-.09,5.96,5.65,11.11,11.59,10.21,4.19,13.35,23.2,5.72,17.57-6.91h0Z"/>
          </g>
          <path class="cls-13" d="m106.74,117.52c6.1.23,12.14.99,18.1,2.3-6.1-.22-12.14-1-18.1-2.3h0Z"/>
          <path class="cls-13" d="m107.92,127.52c5.51-1.12,11.09-1.7,16.72-1.73-5.51,1.12-11.09,1.7-16.72,1.73h0Z"/>
          <path class="cls-13" d="m103.56,122.52c6.15-.53,12.3-.52,18.45.05-6.15.53-12.3.51-18.45-.05h0Z"/>
        </g>
      </g>
    </g>
  </g>
  <g id="Fatigue">
    <g>
      <path class="cls-13" d="m47.88,210.31l-1.45-5.58c-.07-.28.09-.58.38-.66h0s0,0,.02,0l3.06-.8c.27-.07.58.1.66.38.08.29-.11.59-.38.66l-2.56.67.45,1.73,2.2-.57c.28-.07.58.11.66.38.08.29-.1.59-.38.66l-2.2.57.59,2.27c.07.28-.1.58-.39.66-.29.08-.58-.1-.65-.38Z"/>
      <path class="cls-13" d="m56.03,207.38l-2.34.43-.24,1.34c-.05.23-.23.39-.44.43-.07.01-.13.01-.19,0-.3-.05-.49-.34-.44-.63l1.09-6.05c.05-.23.24-.4.45-.43.22-.05.45.05.57.24l3.16,5.28c.15.26.07.59-.19.75-.04.03-.11.05-.18.06-.21.04-.44-.05-.55-.25l-.7-1.16Zm-.59-.99l-1.16-1.93-.4,2.21,1.56-.28Z"/>
      <path class="cls-13" d="m61.57,202.53l-1.54.16.55,5.19c.03.3-.18.56-.48.59-.29.03-.56-.18-.59-.48l-.55-5.19-1.54.16c-.3.03-.56-.2-.59-.49-.03-.3.18-.56.48-.59l4.15-.44c.29-.03.56.18.59.48.03.29-.18.57-.48.6Z"/>
      <path class="cls-13" d="m64.03,201.85c-.01-.3.21-.55.52-.56.29-.01.56.21.57.51l.23,5.76c.01.3-.23.55-.53.56-.3.01-.55-.21-.56-.52l-.23-5.76Z"/>
      <path class="cls-13" d="m66.88,204.5c.07-1.96,1.74-3.47,3.73-3.4.83.03,1.61.34,2.2.84.25.19.27.56.08.8-.19.23-.56.26-.79.06-.41-.34-.94-.56-1.53-.58-.7-.02-1.33.22-1.78.65-.47.42-.77,1.01-.79,1.67-.02.64.23,1.25.67,1.71.42.46,1.03.75,1.73.77.49.02.95-.11,1.35-.33l.05-1.34-1.4-.05c-.3-.01-.55-.27-.54-.58.01-.31.27-.54.58-.53l1.92.07h.02c.31.01.56.25.55.57l-.07,2.16c0,.07-.02.11-.03.17-.01.02-.01.03-.02.05h0c-.03.1-.09.17-.19.24-.63.46-1.41.71-2.24.69-1.98-.07-3.55-1.68-3.48-3.63Z"/>
      <path class="cls-13" d="m77.63,208.8c-1.56-.23-2.61-1.67-2.39-3.21l.5-3.44c.04-.3.31-.5.61-.45.29.04.51.31.46.61l-.5,3.45c-.14.95.52,1.84,1.47,1.97.96.14,1.84-.52,1.97-1.47l.5-3.44c.04-.3.32-.5.62-.45.3.04.5.31.45.61l-.5,3.44c-.23,1.54-1.66,2.61-3.21,2.39Z"/>
      <path class="cls-13" d="m82.17,209.03l1.33-5.61c.07-.3.35-.47.65-.4h0s0,0,.02,0l3.08.73c.28.07.47.35.4.65-.07.29-.37.47-.65.41l-2.58-.61-.41,1.74,2.22.53c.29.07.46.37.4.65-.07.29-.36.48-.65.41l-2.22-.53-.42,1.75,2.58.61c.28.06.47.36.4.66-.07.29-.37.46-.65.4l-3.08-.73s-.02-.01-.02-.01h-.01c-.29-.06-.47-.35-.4-.64Z"/>
    </g>
    <g>
      <path class="cls-11" d="m55.46,243.46c-.82-.45-1.81.15-1.84,1.05-.01.07-.02.14-.02.21.05.94,1.14,1.45,1.92.95.81-.52.8-1.75-.06-2.22Z"/>
      <path class="cls-11" d="m132.04,274.05c-.82-.45-1.81.15-1.84,1.05-.01.07-.02.14-.02.21.05.94,1.14,1.45,1.92.95.81-.52.8-1.75-.06-2.22Z"/>
      <path class="cls-11" d="m105.91,222.85c-.82-.45-1.81.15-1.84,1.05-.01.07-.02.14-.02.21.05.94,1.14,1.45,1.92.95.81-.52.8-1.75-.06-2.22Z"/>
      <path class="cls-11" d="m59.97,242.33c-.22.26-.27.58-.13.87.17.6,1.15.91,1.58.2.56-.93-.74-1.91-1.45-1.06Z"/>
      <path class="cls-11" d="m53.59,239.83c-.79,0-.79,1.23,0,1.23s.79-1.23,0-1.23Z"/>
      <path class="cls-11" d="m66.81,289.1c-.79,0-.79,1.23,0,1.23s.79-1.23,0-1.23Z"/>
      <path class="cls-11" d="m115.04,221.67c-.79,0-.79,1.23,0,1.23s.79-1.23,0-1.23Z"/>
      <path class="cls-11" d="m134.72,255.87c-.79,0-.79,1.23,0,1.23s.79-1.23,0-1.23Z"/>
    </g>
    <g>
      <circle class="cls-1" cx="67.62" cy="258.26" r="43.19" transform="translate(-173.57 143.8) rotate(-49.94)"/>
      <path class="cls-13" d="m104.13,234.73c-9.13-14.56-27.35-22.52-44.31-19.36-14.4,2.54-26.5,12.08-32.38,25.51-5.89,13.46-4.68,28.85,3.24,41.19,7.96,12.31,21.48,19.77,36.17,19.96.2,0,.39,0,.59,0,14.44,0,27.87-7.06,36.02-18.96,9.88-14.14,10.16-34.02.67-48.35Zm-37.16,66.02c-14.3-.28-27.39-7.57-35.03-19.5-7.71-11.88-8.94-26.81-3.29-39.95,5.66-13.16,17.36-22.56,31.32-25.14,2.58-.51,5.18-.76,7.79-.76,14.2,0,28.24,7.42,35.95,19.59,0,0,0,0,0,0h0c9.35,14.26,8.97,33.84-.92,47.62-8.11,11.64-21.5,18.43-35.82,18.14Z"/>
      <g>
        <path class="cls-4" d="m36.7,244.23v28.07h55.32v-28.07h-55.32Zm52.5,25.25h-49.68v-22.44h49.68v22.44Z"/>
        <rect class="cls-1" x="39.51" y="247.04" width="49.68" height="22.44"/>
        <polygon class="cls-12" points="46.12 249.12 42.17 249.12 42.17 267.41 50.2 267.41 46.12 249.12"/>
        <polygon class="cls-12" points="57.68 267.4 52.39 267.4 48.3 249.12 53.6 249.12 57.68 267.4"/>
        <rect class="cls-4" x="93.61" y="250.18" width="4.92" height="16.16"/>
      </g>
    </g>
  </g>
</svg>