<?xml version="1.0" encoding="UTF-8"?>
<svg id="Layer_2" data-name="Layer 2" xmlns="http://www.w3.org/2000/svg" viewBox="0 0 532.63 344.88">
  <defs>
    <style>
      .cls-1, .cls-2 {
        fill: #c3e9e4;
      }

      .cls-3 {
        fill: #e9b977;
      }

      .cls-4 {
        fill: #f6a5ca;
      }

      .cls-5 {
        fill: #cf5f73;
      }

      .cls-6 {
        fill: #fffef5;
      }

      .cls-7 {
        fill: #fffbde;
      }

      .cls-8 {
        fill: #261e35;
      }

      .cls-2 {
        opacity: .2;
      }

      .cls-9 {
        fill: #3eaf99;
      }

      .cls-10 {
        fill: #6c858a;
      }

      .cls-11 {
        fill: #d26e79;
      }

      .cls-12 {
        fill: #28cbb0;
      }

      .cls-13 {
        fill: #d4787d;
      }

      .cls-14 {
        fill: #d2e7f1;
      }

      .cls-15 {
        fill: #5a6e71;
      }
    </style>
  </defs>
  <g id="OBJECTS">
    <g>
      <path class="cls-2" d="m500.37,177.81s-14.95,58.54-88.25,56.29c-62.6-1.92-87.38-59.24-131.11-51.63-43.74,7.61-83.3,11.21-102.13-35.99-22.07-55.3-13.53-103.37,59.52-122.51,73.05-19.14,102.91,12.91,161.12,0,58.21-12.91,143.79,47.14,100.85,153.84Z"/>
      <path class="cls-2" d="m12.18,112.73s15.66-61.33,92.45-58.97c65.58,2.01,91.54,62.07,137.36,54.09,45.82-7.97,87.26-11.74,106.99,37.7,23.12,57.93,14.17,108.29-62.36,128.35-76.53,20.05-107.81-13.52-168.79,0S-32.8,224.51,12.18,112.73Z"/>
      <path class="cls-2" d="m50.58,288.66s159.53-3.35,219.71,4.97c60.17,8.32-33.58,10.75-126.82,9.99-90.29-.74-130.17-3.41-135.62-5.45-8.13-3.04-1.46-8,42.73-9.52Z"/>
      <path class="cls-2" d="m476.2,329.3c-11.66-2.04-23.02-3.47-33.87-4.45,28.03-8.98,44.84-19.48,18.8-24.55-48.18-9.38-109.7-1.03-109.7-1.03-12.11.88-13.14,9.34-11.17,12.38,1.23,1.89-9.3,9.36-12.88,16.24-34.54,3.04-46.92,9.59-44.48,12.31,3.71,4.14,9.94,4.31,116.35,4.68,65.84.23,147.48-3.24,76.94-15.57Z"/>
      <g>
        <path class="cls-8" d="m30.17,250.8s-5.66,44.57-.84,45.18,13.58-40.68,13.58-40.68l-12.74-4.49Z"/>
        <path class="cls-8" d="m258.25,250.8s5.66,44.57.84,45.18c-4.82.6-13.58-40.68-13.58-40.68l12.74-4.49Z"/>
        <path class="cls-1" d="m25.38,224.99s2.61-52.62,28.96-68.83,77.01-17.05,136.28-9.59c71.21,8.96,62.79,76.25,62.79,76.25,18.71.73,26.77,4.38,29.29,23.56,3.24,24.68-35.03,20.03-81.49,22.13-59.63,2.7-155.51,2.28-176.08-2.28-20.56-4.56-26.74-27.64.25-41.25Z"/>
        <path class="cls-15" d="m130.35,225.56s185.32,3.6,56.59,19.86c-31.67,4-112.32,2.31-124.75-.12-12.43-2.43-77.89-13.59,68.16-19.75Z"/>
      </g>
      <g>
        <path class="cls-8" d="m132.59,96.63s7.35-1.19,12.99,8.68c5.64,9.86-3.66,22.51-3.24,28.63.43,6.12,1.95,14.57-12.49,16.54-14.45,1.97-7.59-55.5,2.74-53.85Z"/>
        <path class="cls-4" d="m115.52,108.13s-4.99,26.85-9.16,27.74c-9.36,2-17.38.71-29.55,31.12s-7.16,74.25,24.49,76.33c9.27.61,65.02-17.83,33.36-42.08-22.05-16.89-.66-48.22-2.32-57.05-1.66-8.83-16.29,6.64-3.2-21.21l-13.62-14.86Z"/>
        <path class="cls-4" d="m115.94,102.88s16.26-5.15,21.52.97c5.26,6.12,3.41,26.55-7.75,28.3-17.41,2.72-22.77-21.83-13.77-29.27Z"/>
        <path class="cls-4" d="m96.55,234.52s28.82-85.72,52-86.13c23.18-.4,39.39,82.1,44.17,85.88s16.06,2.9,10.76,4.94c-5.31,2.04-1.55,1.47-14.53.59s-36.45-46.83-38.6-47.28-12.53,49.32-39.63,50.42c-15.04.61-14.16-8.42-14.16-8.42Z"/>
        <path class="cls-4" d="m108.57,234.03s28.82-85.72,52-86.13,39.39,82.1,44.17,85.88c4.78,3.77,16.06,2.9,10.76,4.94-5.31,2.04-1.55,1.47-14.53.59s-36.4-47.3-38.6-47.28c-9.17.09-12.53,49.32-39.63,50.42-15.04.61-14.16-8.42-14.16-8.42Z"/>
        <path class="cls-4" d="m128.84,141.02s58.24-2.67,50,20.16c-4.76,13.18-29.7,18.24-48.61,14-18.91-4.24-9.6-37.59-1.39-34.15Z"/>
        <path class="cls-8" d="m127.81,114.86s-.3,1.68-2.24,1.94c-1.28.17-1.81-.93-2.64-.47s-.98,1.14-.77,1.64.79-.34,1.45-.36,2.51,1.12,3.96-.22c.99-.91.83-3.21.25-2.51Z"/>
        <path class="cls-8" d="m134.23,114.06s1.2.91,2.1.63,1.23-1.33,1.83-1.48,2,1.16,1.58,1.38-.85.01-1.1.04-.8,1.27-2.33,1.37-3.32-2-2.1-1.95Z"/>
        <path class="cls-8" d="m169.85,231.79c1.18-.26,20.96-1.57,22.98-4.89s-16.83-72.92-34.48-74.35c-17.65-1.43-65.8,70.34-70.14,81.3-4.35,10.96,23,10.44,36.47,8.55,22.3-3.13,27.92-43.9,28.45-40.26,1.53,10.5,11.43,30.84,16.74,29.65Z"/>
        <path class="cls-8" d="m191.6,228.16s10.64-1.9,11.1-3.81-16.45-59.98-29.53-69.96c-13.07-9.98-23.25,4.93-21.94,10.57,1.31,5.64,30.67,68.29,40.37,63.2Z"/>
        <path class="cls-12" d="m107.61,134.9s5.45,14.3,15.66,12.25c6.25-1.26,1.18-6.29,4.25-6.37,3.06-.08,10.14-.1,13.42.88s2.51,24.19.04,29.68-31.5,28.71-36.81,36.59c-5.3,7.87-11.48,31.72-15.74,31.6-4.26-.11-24.98-10.98-20.63-43.79,4.36-32.81,13.45-50,19.68-54.83,6.23-4.84,18.31-9.44,20.12-5.99Z"/>
        <path class="cls-4" d="m85.36,160.12s20.68,36.6,37.38,34.87c16.7-1.73,25.68-44.14,39.9-41.78,14.35,2.38,13.93-3.28.13-5.5-17.49-2.81-32.57,15.69-39.32,23.53-1.22,1.42-17.3-26.41-24.87-27.73-7.57-1.32-14.75,12.48-13.23,16.61Z"/>
        <path class="cls-8" d="m125.19,132.24s-3.97-.06-7.32-4.4c-.64-.83-3.1,7.84,6.24,7.86,0,0,.91-2.78,1.08-3.46Z"/>
        <path class="cls-12" d="m114.23,159.54s-13.3,13.94-20.07,16.79c-6.77,2.85-12.16-13.91-9.25-23.46,2.91-9.55,5.44-15.84,13.45-13.21s15.87,16.16,15.87,19.89Z"/>
        <path class="cls-8" d="m138.16,102.34c.21,7.25-16.17,5.95-18.85,15.1-1.85,6.29-2.34,12.89-10.22,17.2-7.88,4.31-8.25,1.97-11.97,10.3-2.54,5.69-14.39,3.91-20.07,18-2.21,5.48-15.15-5.58-9.79-19.73,3.51-9.26,9.62-6.52,12.54-11.03,2.93-4.51-4.51-22.43,20.75-27.44,5.02-1,7.34-11.48,17.65-14.57,13.5-4.06,19.75,4.91,19.96,12.17Z"/>
        <path class="cls-4" d="m130.14,132.68s10.48,24.35,19.02,22.92c8.53-1.43,26.77-7.01,20.63-9.69-8.23-3.58-18.25-7.04-30.43-13.29-8.56-4.39-9.21.06-9.21.06Z"/>
        <path class="cls-9" d="m96.43,176.5s-9.07-6.98-12.15-12.74c-3.08-5.76-.57,13.39,4.2,20.01s21.53,13.21,25.04,8.57c0,0-6.84-4.22-17.09-15.84Z"/>
        <path class="cls-7" d="m166.07,228.79s23.74-6.67,24.86-5.22,2.2,5.45,1.4,5.71-21.31,7.09-23.2,6.09-4.99-5.98-3.06-6.58Z"/>
        <path class="cls-7" d="m191.2,223.19s7.68-3.99,9.59-4.08c1.9-.09,2.65,4.11,2.81,5.02s-11.75,4.66-13.2,4.53c-1.45-.13-3.67-3.28.8-5.47Z"/>
        <g>
          <path class="cls-8" d="m192.14,231.92s11.02-5.64,12.61-4.44,5.22,7.56,11.29,9.28c0,0-4.46,5.12-5.63,7.36-1.18,2.24-11.23.59-15.61-4.92-1.52-1.91-5.09-6.47-2.66-7.28Z"/>
          <path class="cls-6" d="m196.82,233.69s5.98-3.9,7.32-3.18-.78.72-3.67,3.03-5.85,2.89-3.66.15Z"/>
          <path class="cls-6" d="m200.85,235.93s5.98-3.9,7.32-3.18-.78.72-3.67,3.03c-2.89,2.31-5.85,2.89-3.66.15Z"/>
          <path class="cls-6" d="m204.03,237.95s5.98-3.9,7.32-3.18-.78.72-3.67,3.03c-2.89,2.31-5.85,2.89-3.66.15Z"/>
          <path class="cls-7" d="m215.06,236.4s-5.5,8.21-10.38,7.24c-3.4-.68-9.89-4.44-9.89-4.44.64,1.41,3.73,3.67,6.79,5.28,3.07,1.61,8.25,3.69,13.69,1.16s7.32-6.71-.21-9.23Z"/>
        </g>
        <g>
          <path class="cls-8" d="m180.47,235.61s11.52-4.89,12.64-3.23c1.12,1.67,3.3,9.39,8.51,12.96,0,0-5.86,3.54-7.7,5.34-1.83,1.8-10.85-2.98-13.24-9.68-.83-2.33-1.39-5.55-.22-5.39Z"/>
          <path class="cls-6" d="m184.37,236.32s6.93-1.89,7.97-.77-.97.45-4.45,1.78-6.48.95-3.52-1.01Z"/>
          <path class="cls-6" d="m187.48,239.76s6.93-1.89,7.97-.77c1.04,1.12-.97.45-4.45,1.78-3.48,1.32-6.48.95-3.52-1.01Z"/>
          <path class="cls-6" d="m189.85,242.71s6.93-1.89,7.97-.77c1.04,1.12-.97.45-4.45,1.78-3.48,1.32-6.48.95-3.52-1.01Z"/>
          <path class="cls-7" d="m200.82,244.69s-7.07,9.2-13.43,3.6c-2.61-2.3-6.7-7.28-6.7-7.28.15,1.57,2.36,4.73,4.76,7.25s6.66,6.17,12.62,5.44c5.97-.73,9.09-4.18,2.75-9Z"/>
        </g>
        <path class="cls-8" d="m133.64,122.36c-.99,0-2-.51-2.14-.59l.47-.88c.39.2,1.64.71,2.24.35.19-.39-.61-2.81-1.75-5.14l.9-.44c1.25,2.56,2.5,5.75,1.36,6.44-.33.2-.7.27-1.08.27Z"/>
        <path class="cls-8" d="m170.89,152.72c-3.75-3.72-8.89-3.03-8.94-3.03l-.15-.99c.23-.03,5.67-.78,9.79,3.31l-.7.71Z"/>
        <path class="cls-7" d="m190.84,223.29c-.18-.64-18.01-64.12-28.85-67.83l.24-.71c11.21,3.83,28.59,65.7,29.33,68.33l-.72.2Z"/>
        <path class="cls-4" d="m138.76,132.32s2.01-1.57,3.38-4.42c3.15-6.53-.87-13.72-2.39-13.31s-3.72,12.62-7.19,15.13-2.78,2.85-1.15,5.69,7.63-2.13,7.35-3.09Z"/>
        <path class="cls-8" d="m129.07,133.22c-.07,0-.12,0-.12,0l.06-1c.36.02,8.8.35,10.42-13.67l.99.11c-1.63,14.09-10.23,14.56-11.36,14.56Z"/>
        <path class="cls-8" d="m143.12,153.24l-.59-.81c.35-.26,8.74-6.29,16.47-7.06,5.54-.54,12.1,2.54,14.62,6.9l-.87.5c-2.3-3.98-8.56-6.91-13.66-6.4-7.46.74-15.9,6.81-15.98,6.87Z"/>
        <path class="cls-8" d="m161.83,150.2h-.02q-.55-.01-.55-3.95h1c0,1.72.01,2.56.03,2.97h.09c-.03.51-.05.98-.55.98Z"/>
        <path class="cls-8" d="m115.83,157.13c-.05-.11-4.71-10.91-13.48-16.78l.56-.83c9.02,6.04,13.8,17.11,13.84,17.22l-.92.39Z"/>
        <path class="cls-8" d="m128.21,126.13l-.7-.72c.06-.06,1.59-1.53,3.49-1.49,1.02.02,1.94.44,2.75,1.27l-.72.7c-.61-.63-1.3-.96-2.04-.97-1.45-.02-2.76,1.19-2.78,1.21Z"/>
        <circle class="cls-11" cx="124.02" cy="122.16" r="2.54"/>
        <path class="cls-8" d="m138.78,155.34c-.04-1.92-2.42-4.96-3.33-5.97l.74-.67c.14.16,3.53,3.94,3.58,6.62l-1,.02Z"/>
        <path class="cls-8" d="m118.98,115.65l-.91-.42c.94-2.04,3.43-2.5,6.31-3.02,1.99-.36,4.24-.77,6.25-1.78,4.56-2.28,4.57-7.32,4.57-7.37h1c0,.23-.02,5.71-5.12,8.27-2.14,1.07-4.46,1.49-6.52,1.87-2.71.5-4.86.89-5.58,2.45Z"/>
        <path class="cls-8" d="m76.67,136.72c-.56-14.42,4.51-17.41,12.92-22.36,1.7-1,3.62-2.14,5.64-3.46,6.14-4.03,7.2-7.25,8.21-10.38.89-2.72,1.72-5.28,5.78-7.89,8.65-5.56,16.08-.68,16.15-.63l-.56.83c-.28-.19-6.97-4.55-15.05.64-3.76,2.41-4.5,4.7-5.37,7.36-1.02,3.13-2.18,6.68-8.62,10.9-2.03,1.33-3.97,2.47-5.68,3.48-8.35,4.93-12.96,7.64-12.42,21.46l-1,.04Z"/>
        <path class="cls-8" d="m77.89,156.66l-.1-1c.11-.01,11.25-1.14,15.92-5.31,1.73-1.54,2.44-3.91,3.19-6.41,1.28-4.25,2.72-9.06,9.52-11.21,10.04-3.17,9.72-13.85,9.7-14.3l1-.04c0,.12.38,11.89-10.4,15.3-6.29,1.99-7.6,6.34-8.86,10.54-.79,2.64-1.54,5.14-3.48,6.87-4.91,4.39-16.02,5.51-16.49,5.56Z"/>
        <path class="cls-8" d="m153.12,202.15s-16.99,45.95-64.68,37.38c0,0,17.53,9.16,31.45,5.85,27.37-6.51,37-31.89,37-31.89-.05-1.91-3.77-11.34-3.77-11.34Z"/>
        <path class="cls-7" d="m156.55,213.66c-.09-.17-8.7-16.87-9.41-26.81l.75-.05c.71,9.79,9.25,26.35,9.33,26.52l-.67.35Z"/>
        <path class="cls-8" d="m92.81,216.32l-.83-.56c.09-.13,9.08-13.48,12.13-17.84,3.16-4.51,9.03-6,9.28-6.06l.24.97c-.06.01-5.77,1.47-8.7,5.67-3.05,4.35-12.03,17.69-12.12,17.83Z"/>
        <path class="cls-7" d="m104.22,126.49l-.13-.74c3.88-.68,10.51-7.79,12.73-15.11,3.18-10.5,15.38-11.25,15.5-11.26l.04.75c-.12,0-11.8.74-14.82,10.73-2.35,7.77-9.21,14.91-13.31,15.63Z"/>
        <path class="cls-7" d="m111.41,109.64l-.69-.29c3.09-7.43,6.9-11.95,11.31-13.45,4.65-1.57,8.62.71,9.92,1.47.18.1.31.18.37.21l-.11.29.03.06.38.09-.23.26c-.21.09-.35,0-.82-.26-1.36-.79-4.98-2.87-9.31-1.4-4.21,1.43-7.86,5.81-10.86,13.03Z"/>
        <path class="cls-7" d="m144.53,113.06l-.72-.2c1.46-5.18-4.35-10.6-4.41-10.66l.51-.55c.25.23,6.22,5.79,4.63,11.42Z"/>
      </g>
      <g>
        <path class="cls-8" d="m465.96,270.33s6.2,43.49.92,44.08c-5.28.59-14.87-39.7-14.87-39.7l13.95-4.38Z"/>
        <path class="cls-8" d="m382.37,273.72s-6.22,43.49-11.49,42.88c-5.27-.61-3.24-41.75-3.24-41.75l14.74-1.13Z"/>
        <path class="cls-1" d="m409.55,144.69s38.14-1.25,55.43,11.57c17.28,12.82,15.16,113.83,7.49,125.12-7.67,11.29-118.14,15.74-124.44,0-6.3-15.74,13.86-47.71,22.33-57.84,8.47-10.13,17.37-83.04,39.2-78.85Z"/>
        <path class="cls-4" d="m362.86,151.52s-25.85,21.79-29.81,19.76c-3.96-2.03-26.09-56.45-27.44-55.73s-.1,5.52-.1,5.52c0,0-3.91-8.44-4.49-6.59s1.42,7.54,1.42,7.54c0,0-3.28-7.79-4.06-6.24s.75,6.84.75,6.84c0,0-3.76-4.87-4.18-3.06s1.82,5.16,2.54,8.18c.72,3.02,8.12,57.15,22.09,65.44,13.97,8.28,50.23-17.97,52.92-21.38,2.69-3.41-9.62-20.28-9.62-20.28Z"/>
        <path class="cls-8" d="m304.48,127.83c-.76-.76-1.11-1.6-1.03-2.5.17-1.87,2.17-3.25,2.26-3.3l.61.89s-1.67,1.16-1.79,2.51c-.05.57.18,1.1.71,1.63l-.76.77Z"/>
        <path class="cls-7" d="m300.08,136.48s13.18-5.72,14.24-5.72,3.51,4.92,2.93,7.09-12.78,8.07-15.46,6.94-4.1-7.29-1.72-8.31Z"/>
        <path class="cls-8" d="m404.82,102.96s4.98-.62,6.78,4.35c1.8,4.97.73,18.45-7.22,16.19-7.95-2.26-1.67-21.08.44-20.55Z"/>
        <path class="cls-15" d="m389.21,232.71s115.25,5.39,35.2,31.1c-19.69,6.32-69.84,3.79-77.58,0-7.73-3.79-48.44-21.22,42.37-31.1Z"/>
        <path class="cls-12" d="m299.15,143.64s14.35-9.71,18.64-7.44c4.29,2.26,14.52,28.79,14.52,28.79,1.86-.2,35.2-32.59,50.96-26.13,3.64,1.49-1.58,28.01-5.43,30.4-3.85,2.4-40.99,41.07-55.59,33.14-5.22-2.84-26.06-57.04-23.09-58.76Z"/>
        <path class="cls-4" d="m405.24,116.81s-.19,20.18.62,21.02c1.38,1.43,10.39,1.16,14.14,4.88s-17.69,11.55-28.16,10.91c-6.97-.43-14.07-14.86-9.13-14.88,4.93-.02,8.16-1.26,8.05-4.88s-.14-6.91-.14-6.91c0,0,13.89-9.62,14.63-10.15Z"/>
        <path class="cls-12" d="m386.77,138.35s-3.96,9.43,3.26,10.1c8.49.78,19.16-8.92,20.8-9,14.53-.74,19.33,4.25,24.03,10.04s-5.08,94.24-10.02,95.01-73.02-18.61-75.4-19.13,13.64-80.74,15.17-80.93,11.44-8.71,22.16-6.08Z"/>
        <path class="cls-4" d="m346.98,316.53s4.48,12.36-3.87,12.84c-8.36.48-20.54,2.55-24.23-.15-3.69-2.71,17.7-10.6,18.66-14.9s9.44,2.21,9.44,2.21Z"/>
        <path class="cls-4" d="m307.02,289.16s-2.21,13.7-9.92,10.45c-7.71-3.25-21-5.53-23.12-9.59-2.11-4.06,22.01-2.94,24.77-6.37,2.76-3.43,8.27,5.51,8.27,5.51Z"/>
        <path class="cls-8" d="m426.08,235.22s-.05-24.14-64.68-24.88c-30.54-.35-36.36,96.64-36.36,96.64,6.4.71,31.88,7.35,33.8-.38,1.93-7.73,14.7-51.04,14.7-51.04,8.39-1.54,50.87,11.89,52.54-20.34Z"/>
        <path class="cls-12" d="m391.66,208.32s2.88-13.49,8.4-13.73c5.51-.25,18.07,3.34,20.16.9s-12.43-54.84-6.82-55.57c11.28-1.47,18.05,3.84,23.77,12.91,7.24,11.48,10.84,58.31,3.91,66.32-6.08,7.03-49.37-4.7-49.41-10.83Z"/>
        <path class="cls-8" d="m411.59,196.64c-3.17,0-10.06-1.27-11.63-1.57l.18-.97c4.21.8,11.31,1.9,12.42,1.47,1.84-.72.9-11.59.21-19.52-.59-6.77-1.14-13.17-.51-15.82l.96.23c-.6,2.5-.05,8.82.53,15.5,1.05,12.15,1.52,19.6-.83,20.52-.27.11-.74.15-1.34.15Z"/>
        <path class="cls-8" d="m362.72,164.69l-.75-.64c2.75-3.21,4.92-9.49,4.94-9.55l.93.32c-.09.26-2.25,6.52-5.12,9.87Z"/>
        <rect class="cls-3" x="341.27" y="164.24" width="51.97" height="43.27" transform="translate(165.1 544.42) rotate(-87.43)"/>
        <path class="cls-8" d="m395.24,211.13s-30.34-20.6-50.76-14.14c-25.02,7.92-49.95,76.85-49.95,76.85,13.55,10.79,19.67,19.22,24.94,13.42,22.18-24.42,48.17-67.28,50.89-63.73,2.72,3.55,25.77-.09,24.89-12.41Z"/>
        <path class="cls-4" d="m392.43,196.05s-3.72-5.58-3.73-5.32-1.16,5.1-1.16,5.1c0,0-10.96-6.34-11.45-3.51s.75,8.47,5.04,11c4.29,2.52,8.97,6.36,10.76,4.89,1.79-1.47,5.24-7.54.55-12.15Z"/>
        <path class="cls-4" d="m403.47,99.6s-15.13-5.32-20.23.91-4.86,27.66,6.52,28.94c16.41,1.84,21.96-22.21,13.71-29.84Z"/>
        <circle class="cls-5" cx="397.62" cy="118.22" r="2.38"/>
        <ellipse class="cls-8" cx="382.78" cy="111.94" rx="1.28" ry="1.02" transform="translate(176.94 453.53) rotate(-75.23)"/>
        <ellipse class="cls-8" cx="393.44" cy="112.71" rx="1.28" ry="1.02" transform="translate(201.59 474.23) rotate(-78.03)"/>
        <path class="cls-8" d="m381.19,95.47s-2.47,5.61,2.71,7.64c6.17,2.42,13.85-3.47,16.56-1.86,2.71,1.6-1.24,8.27,4.21,11.61,3.72,2.28,7.05-3.56,5.32-10.64-1.89-7.71-8.68-7.4-10.26-8.67s2.31-1.35,1.01-3.32c-1.29-1.97-13.26-6.11-19.56,5.24Z"/>
        <path class="cls-13" d="m406.86,114.85s.61-2.84,2.31-1.43.62,5.86-1.59,6.62-1.15-4.08-.72-5.19Z"/>
        <path class="cls-8" d="m383.9,123.76c1.36-.67-.65-4.01,4.56-4.96,9.24-1.69,5.16,4.56,9.89,5.5s8.22-15.75,4.47-18.85c-1.63-1.34,8.04-1.41,3.4,14.22-.3,1.02,3.15,14.87-16.19,15.57-3.62.13-8.14-3.43-9.43-6.12-2.27-4.74-.76-12.73-.29-13.71,0,0,1.43,9.41,3.6,8.35Z"/>
        <path class="cls-8" d="m386.51,119.29c-.41,0-.79-.07-1.06-.24-.13-.08-.3-.24-.36-.54-.27-1.25,2.05-4.86,2.77-5.93l.83.56c-1.49,2.23-2.66,4.5-2.63,5.1.52.2,1.97-.13,3.1-.56l.36.93c-.36.14-1.83.68-3.01.68Z"/>
        <path class="cls-7" d="m389.03,122.79c-1.04,0-1.86-.54-1.9-.57l.42-.62s1.01.67,2.07.36c.75-.22,1.37-.88,1.84-1.95l.69.3c-.57,1.29-1.35,2.09-2.32,2.37-.27.08-.54.11-.79.11Z"/>
        <path class="cls-8" d="m291.78,285.68s-1.73,4.38,0,5.19c1.73.81,13.87,1.61,14.47,1.72s-3.76,9.09-5.55,9.34-26.15-2.79-28.2-9.34,16.51-6.66,19.28-6.91Z"/>
        <path class="cls-8" d="m330.44,320.09s1.97,5.62,3.51,5.68,14.21-3.48,14.21-3.48c0,0,.26,9.4-1.68,10.35-1.94.95-27.05,4.72-32.27,1.62-5.22-3.1,16.23-14.17,16.23-14.17Z"/>
        <path class="cls-7" d="m383.06,116.8c-2.68,0-4.86-2.18-4.86-4.86s2.18-4.86,4.86-4.86,4.86,2.18,4.86,4.86-2.18,4.86-4.86,4.86Zm0-8.96c-2.26,0-4.11,1.84-4.11,4.11s1.84,4.11,4.11,4.11,4.11-1.84,4.11-4.11-1.84-4.11-4.11-4.11Z"/>
        <path class="cls-7" d="m394.87,116.8c-2.68,0-4.86-2.18-4.86-4.86s2.18-4.86,4.86-4.86,4.86,2.18,4.86,4.86-2.18,4.86-4.86,4.86Zm0-8.96c-2.26,0-4.11,1.84-4.11,4.11s1.84,4.11,4.11,4.11,4.11-1.84,4.11-4.11-1.84-4.11-4.11-4.11Z"/>
        <path class="cls-7" d="m390.5,113.23c-1.43-.36-2.97-.27-2.99-.27l-.05-.75c.07,0,1.68-.1,3.22.3l-.19.73Z"/>
        <rect class="cls-7" x="403.1" y="108.89" width=".75" height="8.27" transform="translate(259.99 506.71) rotate(-85.62)"/>
        <path class="cls-7" d="m412.82,139.38s-4.38-3.1-8.44-.94c-7.16,3.82-13.9,9.9-13.9,9.9,0,0-2.4-11.13-4.06-11.36s-8.22-1.26-8.08,1.32.18,15.48,3.93,15.36,8.21-3.41,8.21-3.41c0,0,1.37,5.08,5.33,5.93,6.45,1.38,18.37-14.09,17.01-16.8Z"/>
        <path class="cls-7" d="m399.8,196.54s-2.25,15.09-4.56,14.59c-2.31-.49-5.21-1.63-5.21-1.63,0,0,3.33-14.72,4.32-14.72,1.85,0,5.45,1.75,5.45,1.75Z"/>
        <path class="cls-7" d="m386.49,98.2c-.29-2.27.18-4.12,1.38-5.51,2.12-2.44,5.73-2.53,5.88-2.53v.75s-3.43.09-5.32,2.28c-1.05,1.22-1.46,2.87-1.2,4.92l-.74.09Z"/>
        <path class="cls-7" d="m388.09,98.86c-.07-3.43,4.4-5.79,4.59-5.89l.35.67s-4.24,2.25-4.18,5.21h-.75Z"/>
        <path class="cls-7" d="m328.79,276.79l-.74-.11c.02-.11,1.7-11.38,5.09-22.94,4.59-15.62,9.96-24.32,15.97-25.85,12.25-3.12,17.14,3.51,22.81,11.19,3.99,5.41,8.51,11.54,16.41,14.77l-.28.69c-8.09-3.31-12.68-9.53-16.73-15.02-5.51-7.46-10.26-13.91-22.02-10.91-13.75,3.51-20.44,47.72-20.51,48.17Z"/>
        <path class="cls-10" d="m386.08,278.99s-5.99-49.92,10.21-56.17c7.3-2.82,55.93-13.19,61.48-5.25,5.55,7.94,7.15,58.5,0,61.43-7.15,2.93-71.69,0-71.69,0Z"/>
        <path class="cls-7" d="m293.59,266.75s29.88,15.22,28.97,20c-.7,3.69-2.58,8.44-8.29,7.07-7.02-1.69-20.6-12.78-23.5-17.3-2.9-4.52,2.82-9.77,2.82-9.77Z"/>
        <path class="cls-7" d="m323.67,304.86s34.04-.18,35.16,1.74c1.9,3.24.42,10.71-3.33,10.38-6.27-.57-24.73-.19-30.48-.78-5.34-.55-1.36-11.33-1.36-11.33Z"/>
        <path class="cls-8" d="m383.53,203.67l-.92-.4c.36-.83,2.81-5.2,2.92-5.38l.87.49c-.87,1.56-2.6,4.66-2.87,5.29Z"/>
        <path class="cls-8" d="m384.68,200.24c-1.8-1.51-7.93-6.65-7.93-6.65l.64-.77s6.13,5.14,7.93,6.65l-.64.77Z"/>
        <path class="cls-8" d="m383.79,202.13c-.17-.08-4.09-1.9-7.54-5.62l.73-.68c3.31,3.56,7.19,5.37,7.23,5.39l-.42.91Z"/>
      </g>
      <g>
        <path class="cls-10" d="m201.53,16.62c17.25.94,18.76,28.09,5.66,31.35-4.96,1.24-21.35,4.06-23.77-12.39-1.3-8.82,5.26-19.67,18.12-18.97Z"/>
        <path class="cls-8" d="m204.12,38.78s-.09-4.85-3.38-5.11-4.49,5.3-3.65,6.33,2.67-4.14,3.51-3.38,3.68,3.45,3.53,2.16Z"/>
        <path class="cls-8" d="m188.2,29.8s.09,4.85,3.38,5.11,4.49-5.3,3.65-6.33-2.67,4.14-3.51,3.38-3.68-3.45-3.53-2.16Z"/>
        <path class="cls-8" d="m204.39,29s.09,4.85,3.38,5.11,4.49-5.3,3.65-6.33-2.67,4.14-3.51,3.38-3.68-3.45-3.53-2.16Z"/>
        <path class="cls-14" d="m191.01,35.48s-.23,9.48-4.68,7.19c-4.51-2.32,3.49-9.97,4.68-7.19Z"/>
        <path class="cls-14" d="m210.6,34.49s-.25,9.48,4.31,7.42-2.98-10.14-4.31-7.42Z"/>
      </g>
      <g>
        <path class="cls-3" d="m257.22.03c17.25.94,18.76,28.09,5.66,31.35-4.96,1.24-21.35,4.06-23.77-12.39-1.3-8.82,5.26-19.67,18.12-18.97Z"/>
        <path class="cls-8" d="m259.82,22.19s-.09-4.85-3.38-5.11-4.49,5.3-3.65,6.33,2.67-4.14,3.51-3.38,3.68,3.45,3.53,2.16Z"/>
        <ellipse class="cls-8" cx="247.85" cy="15.93" rx="2.62" ry="2.58" transform="translate(-.47 20.29) rotate(-4.68)"/>
        <ellipse class="cls-8" cx="263.02" cy="15.26" rx="2.62" ry="2.58" transform="translate(-.37 21.52) rotate(-4.68)"/>
      </g>
      <g>
        <path class="cls-3" d="m319.26,11.87c17.13,2.24,16.6,29.42,3.29,31.69-5.04.86-21.59,2.44-22.78-14.14-.64-8.9,6.73-19.22,19.49-17.55Z"/>
        <ellipse class="cls-8" cx="308.72" cy="27.02" rx="2.62" ry="2.58" transform="translate(-.17 2.03) rotate(-.38)"/>
        <ellipse class="cls-8" cx="323.9" cy="27.49" rx="2.62" ry="2.58" transform="translate(-.17 2.13) rotate(-.38)"/>
        <path class="cls-8" d="m313.9,36.14s-2.51-2.46-1.92-3.94,2.48,2.79,4.51,2.33c2.03-.46,3.09-3.19,3.71-2.7s-.69,7.19-6.29,4.31Z"/>
      </g>
      <g>
        <path class="cls-3" d="m371.59,44.43c16.31,5.67,10.28,32.18-3.22,31.7-5.11-.18-21.64-2-19.43-18.47,1.19-8.84,10.49-17.45,22.65-13.23Z"/>
        <path class="cls-8" d="m361.42,62.73s9.12.63,8.43,1.9-2.74,4.94-5.85,4.41-5.1-6.55-2.58-6.32Z"/>
        <path class="cls-8" d="m355.99,57.87s1.67-5.53,4.6-3.11c1.73,1.43,1.97,4.47.76,4.32s-1.79-3.34-2.67-2.12c-1.2,1.66-3.3,3.31-2.68.92Z"/>
        <path class="cls-8" d="m370.4,60.15s1.95-5.5,4.88-3.09c1.73,1.43,1.97,4.47.76,4.32s-1.52-3.1-2.67-2.12c-1.29,1.09-3.59,3.28-2.96.89Z"/>
      </g>
      <g>
        <path class="cls-4" d="m156.77,52.29c17.27,0,20.27,27.03,7.36,31-4.89,1.5-21.09,5.21-24.41-11.08-1.78-8.74,4.18-19.93,17.06-19.92Z"/>
        <path class="cls-8" d="m160.17,75.79s.19-4.76-3.02-5.2-4.71,4.94-3.94,6,2.86-3.91,3.63-3.11,3.41,3.59,3.34,2.32Z"/>
        <path class="cls-8" d="m153.54,64.95s-4.74-5.18-5.8-5.15,0,3.1,0,3.1c0,0-3.14-.94-3.1.3.01.42,10.54,5.56,8.9,1.75Z"/>
        <path class="cls-8" d="m158.24,65.4s4.49-5.39,5.55-5.42.15,3.1.15,3.1c0,0,3.09-1.09,3.11.15,0,.43-10.26,6.05-8.8,2.17Z"/>
        <ellipse class="cls-8" cx="148.79" cy="68.98" rx="2.57" ry="2.53" transform="translate(-1.6 3.56) rotate(-1.36)"/>
        <ellipse class="cls-8" cx="163.7" cy="69.18" rx="2.57" ry="2.53" transform="translate(-1.6 3.91) rotate(-1.36)"/>
      </g>
      <g>
        <path class="cls-8" d="m468.76,226.71s-1.26-33,20.31-45.34c13.41-7.68,19.69-16.72,23.43-15.08,3.74,1.63-8.24,28.34-14.47,36.67-6.22,8.32-29.27,23.76-29.27,23.76Z"/>
        <path class="cls-3" d="m447.15,338.89s-9.28-47.25-5.83-49.2,46.34-4.66,46.3-.43c-.04,4.22-.46,50.01-3.89,49.97-3.43-.03-33.17,1.98-36.58-.34Z"/>
        <path class="cls-8" d="m472.98,251.35s.27-26.96,19.29-29.24c19.02-2.28,36.78,10.23,40.05,19.18,3.27,8.95-20.62-6.31-31.85-.29-11.23,6.02-27.5,10.35-27.5,10.35Z"/>
        <path class="cls-8" d="m456.22,253.42s-9.28-24.11-38.74-18.75c-18.84,3.43-28,25.96-26.8,35.41,1.2,9.45,15.43-15.06,28.17-14.86,12.74.2,37.37-1.79,37.37-1.79Z"/>
        <path class="cls-8" d="m462.48,241.74s-1.08-23.32-19.47-28.68c-18.39-5.35-37.96,4.08-42.65,12.37-4.69,8.29,21.37-2.86,31.47,4.92,10.1,7.77,30.65,11.39,30.65,11.39Z"/>
        <path class="cls-8" d="m466.18,287.02c-.04-.42-3.44-42.07,26.39-54.16l.42,1.05c-29.07,11.78-25.73,52.6-25.69,53.01l-1.12.1Z"/>
        <path class="cls-8" d="m482,262.76s14.79-12.19,27.53-4.1c12.74,8.09,8.86,23.59,13.93,29.24,5.07,5.65-5.02,9.06-14.66,2.73-9.65-6.33-9.43-17.4-15.31-19.55-5.87-2.15-11.49-8.32-11.49-8.32Z"/>
        <path class="cls-8" d="m442.77,262.49s-15.67-10.57-26.45,0c-10.78,10.56-5.51,30.29-9.3,36.87-3.79,6.58,6.79,7.82,14.91-.38,8.12-8.2,3.17-23.36,8.47-26.69,5.3-3.33,12.36-9.8,12.36-9.8Z"/>
        <path class="cls-8" d="m468.24,287.47l-1.11-.17c2.02-13.3,6.8-21.44,14.23-24.19,5.63-2.09,12.88-.98,20.95,3.2,6.05,3.14,10.51,6.94,10.55,6.98l-.73.86c-.17-.15-17.45-14.78-30.38-9.98-7.01,2.6-11.55,10.44-13.5,23.31Z"/>
        <path class="cls-8" d="m466.06,271.31c-3.17-27.5,2.26-45.91,7.38-56.51,5.57-11.53,11.81-16.47,12.07-16.67l.69.89c-.25.2-25.02,20.16-19.02,72.16l-1.12.13Z"/>
        <path class="cls-8" d="m465.12,255.49c-3.73-19.14-10.61-27.45-15.73-31.05-5.49-3.87-10.18-3.27-10.23-3.26l-.16-1.12c.81-.11,19.88-2.43,27.22,35.21l-1.11.22Z"/>
        <path class="cls-8" d="m466.05,275.04c-3-12.58-8.9-21.32-17.52-25.97-13.94-7.52-30.44-1.68-30.61-1.62l-.38-1.06c.17-.06,17.13-6.07,31.52,1.68,8.93,4.81,15.01,13.79,18.09,26.7l-1.1.26Z"/>
        <path class="cls-8" d="m465.87,286.34c-.02-.95-.85-23.24-25.04-23.4-7.68-.05-13.38,2.03-16.95,6.18-5.38,6.24-4.06,15.13-4.04,15.22l-1.11.17c-.06-.39-1.41-9.5,4.3-16.13,3.8-4.41,9.77-6.66,17.82-6.57,25.29.16,26.15,24.26,26.15,24.5l-1.13.03Z"/>
        <path class="cls-8" d="m455.68,269.41s-13.28-6.58-16.65,10.37c-3.37,16.95,2.13,41.65-1.06,46.32-3.19,4.67,13.7.32,15.69-11.34,1.99-11.66-.95-41.64,2.02-45.35Z"/>
        <path class="cls-8" d="m446.38,289.87c-.03-.63-.72-15.59,6.4-20.19,3.33-2.15,6.19-2.59,8.51-1.3,6.18,3.43,6.03,17.98,6.02,18.6l-1.13-.02c0-.14.15-14.5-5.44-17.6-1.93-1.07-4.4-.64-7.35,1.27-6.57,4.25-5.89,19.04-5.88,19.19l-1.13.06Z"/>
        <path class="cls-8" d="m463.71,265.53s8.78-11.81,17.23,4.32c8.02,15.31-4.2,40.21-.79,44.72,3.4,4.51-13.67.97-16.21-10.58-2.54-11.55-.27-39.05-.23-38.46Z"/>
        <path class="cls-8" d="m472.71,282.66c-.25-4.85-1.67-17.7-5.17-18.81-.95-.3-2.09.38-3.39,2.03l-.88-.7c1.62-2.05,3.18-2.85,4.62-2.4,4.87,1.55,5.86,17.96,5.96,19.83l-1.13.06Z"/>
        <path class="cls-7" d="m457.32,236.8c-11.06-17.13-30.64-17.57-30.83-17.57v-.75c.21,0,20.18.44,31.46,17.91l-.63.41Z"/>
        <path class="cls-7" d="m471.99,218.96l-.72-.21c4.61-15.79,21.29-32.39,21.46-32.55l.53.53c-.17.17-16.71,16.63-21.27,32.23Z"/>
        <path class="cls-7" d="m477.83,244.34l-.59-.46c12.34-16.04,28.92-11.43,29.08-11.39l-.21.72s-4.1-1.17-9.59-.36c-5.06.74-12.41,3.33-18.69,11.49Z"/>
        <path class="cls-7" d="m448.28,249.35c-12.47-10.63-38.41-3.52-38.67-3.45l-.2-.72c.26-.07,26.58-7.29,39.36,3.6l-.49.57Z"/>
        <path class="cls-7" d="m419.46,284.36c-.02-.46-.49-11.42,5.47-17.52,2.63-2.69,6.15-4,10.38-3.88l-.02.75c-4.06-.12-7.35,1.12-9.83,3.66-5.74,5.87-5.26,16.85-5.26,16.96l-.75.04Z"/>
        <path class="cls-7" d="m446.01,297.53c-4.63-9.84,3.48-24.83,3.83-25.46l.66.36c-.08.15-8.28,15.29-3.81,24.78l-.68.32Z"/>
        <path class="cls-7" d="m471.87,288.33l-.73-.15c.04-.19,3.75-18.55-.98-23.05-.98-.93-2.23-1.18-3.84-.76l-.19-.73c1.85-.48,3.38-.16,4.54.95,5.03,4.78,1.35,22.97,1.19,23.74Z"/>
        <path class="cls-7" d="m508.98,269.59c-9.83-12.92-22.52-7.94-22.65-7.89l-.28-.7c.13-.05,13.35-5.24,23.53,8.13l-.6.46Z"/>
      </g>
    </g>
  </g>
</svg>